<?xml version="1.0" encoding="utf-8"?>
<!-- Generator: Adobe Illustrator 27.5.0, SVG Export Plug-In . SVG Version: 6.00 Build 0)  -->
<svg version="1.1" xmlns="http://www.w3.org/2000/svg" xmlns:xlink="http://www.w3.org/1999/xlink" x="0px" y="0px"
	 viewBox="0 0 750 500" style="enable-background:new 0 0 750 500;" xml:space="preserve">
<g id="BACKGROUND">
	<g>
		<g>
			<rect style="fill:#FFFFFF;" width="750" height="500"/>
		</g>
	</g>
</g>
<g id="OBJECTS">
	<g>
		<g>
			<g>
				<path style="fill:#FFFFFF;" d="M14.38,393.937c9.4,0.009,18.8,0.018,28.2,0.027c4.181,0.004,8.324,0.091,12.275-1.473
					c3.29-1.302,6.194-3.378,9.057-5.418c3.245-2.311,6.547-4.692,10.362-5.969c0.6-0.201,0.377-1.169-0.23-0.965
					c-6.742,2.257-11.684,7.657-17.986,10.738c-1.592,0.778-3.266,1.379-5.01,1.703c-2.246,0.418-4.542,0.396-6.817,0.394
					c-4.679-0.004-9.359-0.009-14.038-0.014c-5.259-0.005-10.518-0.01-15.777-0.015C13.778,392.945,13.74,393.937,14.38,393.937
					L14.38,393.937z"/>
			</g>
		</g>
		<g>
			<path style="fill:#2A2C2A;" d="M255.068,408.306c9.867-1.592,16.248-13.72,26.235-13.355
				c-11.464-1.927-23.707,1.418-32.598,8.908c3.735-10.012,7.47-20.024,11.205-30.036c-5.31,3.613-7.672,10.192-9.125,16.448
				c-1.454,6.256-2.419,12.866-6.068,18.151c1.284-14.975,5.6-38.846-0.574-45.015c-1.805-1.803-0.626-5.127-1.795-7.395
				c-1.439-2.791-4.074-5.007-5.363-7.775c4.516,15.409,2.626,31.965,3.2,48.155c-1.294-1.7-2.852-3.194-4.643-4.376
				c-3.987-2.631-8.64-3.694-13.374-4.617c2.911,2.128,5.6,4.551,7.972,7.267c5.173,5.924,8.775,13.208,10.342,20.915l1.941-0.849
				c0.01,0.04,0.017,0.08,0.027,0.12l9.937,8.302c6.387-5.084,14.127-8.451,22.201-9.659c9.109-1.363,18.986-0.149,27.003-4.684
				C286.083,408.643,270.575,408.474,255.068,408.306z"/>
			<path style="fill:#2A2C2A;" d="M203.722,378.964c-1.748-0.228-3.76-0.135-4.94,1.175c4.418,1.01,8.419,3.327,12.712,4.779
				c3.436,1.162,7.077,1.782,10.672,2.482c-2.929-2.141-6.083-3.985-9.367-5.527C209.912,380.516,206.886,379.376,203.722,378.964z"
				/>
		</g>
		<path style="fill:#2A2C2A;" d="M407.154,455.473c2.254-0.813,4.23-2.234,6.337-3.375c3.405-1.844,7.15-2.955,10.864-4.054
			c3.119-0.923,6.282-1.853,9.534-1.937c6.178-0.16,11.965,2.71,17.689,5.042c5.397,2.199,13.728,0.755,18.186,4.754
			c0.694,0.622,1.514,1.088,2.427,1.277c4.241,0.88,0.274,1.776-1.853,1.852c-18.084,0.651-41.656,0.165-59.74,0.816
			c-6.062,0.218-12.147,0.455-18.209,0.089c-0.91-0.055-2.232-1.564,0.299-2.245C396.211,456.745,404.441,456.451,407.154,455.473z"
			/>
		<g>
			<g>
				<path style="fill:#2A2C2A;" d="M262.042,100.235c-2.32,1.14-3.14,1.34-8.89,5.31c-3.27,2.26-7.17,5.3-11.55,9.26
					c-0.58-0.53-1.41-0.89-1.19-0.5c0.31,0.52,0.74,0.91,0.74,0.91c-0.281,0.256,0.313,0.246,0.028,0.51
					c-2.421,2.237-5.267,4.838-8.179,7.716c-0.144,0.142,0.089,0.375-0.055,0.518c-1.977,1.969-4.354,3.973-6.264,6.166
					c0.06,0.07,0.11,0.13,0.14,0.2c0.06,0.17-1.39,1.38-2.82,2.94c-2.96,3.55-6.02,7.42-9.14,11.67c0.23-0.11,0.85-0.25,1.07-0.12
					c0.2,0.12-0.04,0.37-1.28,1.16c-2.84,4.03-9.1,12.31-11.95,16.88c0.21,0.23,0.34,0.44,0.34,0.61c0,0.51-5.68,8.15-7.97,12.33
					c-1.48,2.65-2.95,5.39-4.42,8.2c0.36,0.28,0.59,0.52,0.6,0.68c0,0.9-7.08,11.71-7.23,11.94c-1.3,2.46-2.59,4.91-3.87,7.38
					c0.18,0.14,0.3,0.27,0.33,0.36c0.23,0.8-3.84,6.5-5.16,9.11c-2.81,5.63-5.58,11.42-8.27,17.53c0.7,0.47,0.93,0.38,0.85,0.63
					c-0.29,0.91-2.74,4.56-5.98,11.66c-1.15,2.94-2.29,5.95-3.41,9.08c-0.9-0.41-2.05-0.95-2.88-1.43
					c-1.57-0.91-0.96-0.05-2.95-0.24c-1.99-0.19-2.22-0.1-2.03,0.24c0.19,0.33,1.77,1,3.5,1.19c1.72,0.2,3.87,1.59,3.87,1.59
					c0.27,0.22,0.46,0.42,0.53,0.58c0.57,1.41-1.97,5.22-3.76,9.03c-2.42,7.59-4.73,15.78-6.91,24.73c1.79,0.75,0.4,0.9-0.24,3.23
					c-0.71,2.54-3.22,12.26-3.32,12.66c-1.62,7.88-3.14,16.33-4.57,25.41c1.08-0.77,2.31-1.51,2.71-1.2c0.5,0.37-1.4,4.78-2.79,7.8
					c0.76,0.83-2.97,15.34-6.51,48.96l-15.18-1.78c0,0,6.29-47.01,6.74-48.92c0.06-0.24,0.33-0.41,0.76-0.51c0,0-0.01-0.14,3.1,0
					c3.11,0.14,5.51,0.76,6.56,0.91c1.05,0.14,1.58-0.26-1.44-0.97c-3.01-0.71-2.58-2.1-4.97-1.86c-2.4,0.24-1.97-1.29-1.06-3.4
					c0.91-2.1,3.02-13.83,3.5-17.28c0.18-1.27,0.04-1.88-0.32-1.85c0.65-2.66,1.33-5.36,2.04-8.08h-0.01c0,0,2.45-13.09,3.07-14.72
					c0.35-0.89,0.7-1.1,0.94-1.1c0.21,0,0.34,0.14,0.34,0.14s2.89,0.58,3.18,0.62c0.28,0.05,2.25-2.06,2.92-2.1
					c0.67-0.05-0.34,2.68,0,2.77c0.33,0.1,0.96,0.23,1.43,0.27c0.48,0.05-0.37-0.9-0.32-1.24c0.05-0.33,1.04-2.81-0.25-2.95
					c-1.29-0.15-1.53-3.21-2.11-3.21c-0.42,0-3.32,4.14-4.13,3.46c2.35-7.79,4.96-15.68,7.85-23.52l-0.01-0.01
					c0,0,2.29-7.78,2.87-8.99c0.08-0.17,0.33-0.24,0.68-0.24c2.19-5.48,4.51-10.9,6.99-16.23c0,0,1.55-4.56,2.12-6.7
					c0.06-0.21,0.53-0.16,1.08-0.04c0,0,0.68,0.49,1.61,0.87c0.92,0.38,1.3,0.83,2.04,0.86c0.73,0.04,0.92-2.45,2.52-5.71
					c1.59-3.25,6.38-10.15,6.64-12.45c0.25-2.29,0.64-0.95-1.22-0.63c-1.85,0.31-2.82,5.1-5.08,8.48c-2.26,3.39-2.13,6.39-3.53,7.22
					c-1.41,0.83-0.51-1.15,0.7-4.02c1.21-2.88,2.94-5.62,3.51-7.09c0.57-1.47-0.67,1.07-1.15,1.15c-0.12,0.02-0.22-0.08-0.32-0.24
					c0.95-1.86,1.89-3.69,2.83-5.49c0,0,3.87-10.29,4.88-10.15c0,0,0.05,0.03,0.14,0.07c0.16-0.67,0.47-1.87,0.71-2.22
					c0.14-0.21,0.3,0.26,0.43,0.86c1.04-1.87,2.08-3.71,3.11-5.53h-0.01c0,0,5.86-11.94,6.39-12.61c0.18-0.22,0.36-0.29,0.52-0.29
					c0.32,0,0.56,0.29,0.56,0.29s0.31,0.38,1.55,0.91c1.25,0.52,2.06,1.05,2.73,1.43c0.67,0.38,0.72-0.24-0.19-0.91
					c-0.91-0.67-1.82-0.14-2.3-1.05c-0.22-0.4-0.6-1.11-0.95-1.75c1.68-2.7,3.34-5.31,4.99-7.84c0.06-0.09,6.91-11.35,7.29-11.66
					c0.39-0.31,0.64,0,0.64,0s0.19,0.26,0.91,0.66c0.72,0.41,1.32,1.06,1.87,1.34c0.55,0.29,0.69,0.55,0.81,0.46
					c0.12-0.1,0-0.26-0.81-0.86c-0.82-0.6,1.1-1.37,2.34-3.04c1.25-1.68,5.17-7.18,5.65-8.33c0.48-1.15,0.91-2.2-1.39,0.67
					c-2.29,2.87-1.96,2.65-3.8,4.87c-1.84,2.21-2.66,3.75-2.61,2.84c0.05-0.91,3.25-4.76,3.06-5.02c-0.19-0.25-1.05-0.1-2.1,1.88
					c-1.06,1.99-1.97,3.95-2.64,4.05c-0.23,0.03-0.46-0.14-0.65-0.39c3.05-4.26,10.57-14.95,11.62-15.96
					c0.14-0.13,0.22-0.18,0.28-0.18c0.09,0,0.14,0.1,0.28,0.2c0,0,0.08,0,0.59,0.43c0.5,0.43,0.52,0.98,1.22,1.25
					c0.69,0.26,0.88,0.57,0.91,0.45c0-0.13-0.72-0.44-0.87-0.91c-0.14-0.48-0.27-0.91-0.49-1.1c-0.22-0.19-0.42-0.33,0.21-1.1
					c0.62-0.77,1.29-1.17,1.5-1.77c0.05-0.15,0.06-0.32,0.03-0.48c-0.05-0.24,0-0.48,0.16-0.67c1.93-2.27,3.83-4.4,5.7-6.45v-0.01
					c0,0,3.75-4.53,3.93-4.66c0.03-0.02,0.06-0.03,0.09-0.03c0.13,0,0.22,0.19,0.22,0.19s0.05,0.04,0.43,0.43
					c0.38,0.38,0.55,0.64,0.69,0.64c0.15,0,2.04-2.22,3.52-3.71c1.49-1.48,2.33-2.2,2.25-2.32c-0.07-0.12-2.65,2.11-3.99,3.4
					c-1.34,1.29-0.51-0.41,0.93-1.6c1.44-1.2,2.39-2.09,2.42-2.18c0-0.06-0.24-0.43-0.46-0.59c0,0,0.41-1.13,0.58-1.23
					c0.09-0.05,0.18,0.31,0.23,0.64c2.52-2.384,3.326-3.426,5.679-5.428c0.441-0.376,2.27-2.174,2.705-2.537
					c0.242-0.201,0.26,0.123,0.503-0.072c3.004-2.413,6.259-4.843,8.913-6.743C260.052,98.985,267.152,97.725,262.042,100.235z"/>
				<path style="fill:#2A2C2A;" d="M180.084,202.731c0,0,20.978,2.579,26.292,3.057l-1.819,0.527c0,0-20.537-2.314-25.133-1.995
					C174.828,204.64,175.872,202.198,180.084,202.731z"/>
				<path style="fill:#2A2C2A;" d="M205.168,204.492c0,0-2.376-0.643-0.836,3.012c2.222,5.273,9.943,18.263,9.943,18.263
					S210.976,206.485,205.168,204.492z"/>
				<path style="fill:#2A2C2A;" d="M203.346,206.536c0,0-1.18-1.066-1.364,1.49c-0.266,3.686,0.374,13.427,0.374,13.427
					S206.105,209.384,203.346,206.536z"/>
				<path style="opacity:0.4;fill:#2A2C2A;" d="M207.923,206.322c0,0-1.923-0.258-0.344,2.44c2.277,3.893,9.644,13.252,9.644,13.252
					S212.666,207.283,207.923,206.322z"/>
				<path style="opacity:0.4;fill:#2A2C2A;" d="M207.031,204.462c0,0-0.582,1.195,1.513,0.749
					c3.022-0.643,10.696-3.419,10.696-3.419S208.678,201.585,207.031,204.462z"/>
				<path style="opacity:0.4;fill:#2A2C2A;" d="M200.667,224.753c0,0-1.557-16.327-6.288-18.355c0,0-1.39-0.483-1.173,1.283
					c-0.024,0.098-0.046,0.2-0.067,0.316c-0.541,3.006-0.87,11.065-0.87,11.065s1.645-3.815,2.354-7.281
					C196.827,217.037,200.667,224.753,200.667,224.753z"/>
				<path style="opacity:0.4;fill:#2A2C2A;" d="M227.871,130.725c0,0-1.347,0-0.926,3.16c0.221,1.656,4.053,15.415,4.053,15.415
					S230.36,131.235,227.871,130.725z"/>
				<path style="fill:#2A2C2A;" d="M228.369,130.783c0,0-1.088,0.437-0.309,1.468c0.779,1.031,10.102,9.539,10.102,9.539
					S231.259,129.77,228.369,130.783z"/>
				<path style="fill:#2A2C2A;" d="M184.403,181.853c0,0,0.89,0.763-0.18,1.489c-1.069,0.726-12.633,5.784-12.633,5.784
					S181.993,179.965,184.403,181.853z"/>
				<path style="fill:#2A2C2A;" d="M182.816,180.037c0,0,0.331,1.125-0.962,1.152c-1.292,0.027-13.745-2.027-13.745-2.027
					S181.822,177.141,182.816,180.037z"/>
				<path style="fill:#2A2C2A;" d="M184.689,182.338c0,0,1.41,0.699,0.258,1.998c-1.152,1.299-14.533,11.703-14.533,11.703
					S180.927,180.677,184.689,182.338z"/>
				<g>
					<path style="opacity:0.4;fill:#2A2C2A;" d="M185.228,238.82c0,0-18.44-13.213-20.864-8.789c0,0-0.064,0.761,0.7,1.791
						c-0.199,0.771-0.258,1.931,0.213,3.599c2.028,7.181,9.209,16.005,9.209,16.005s-1.8-10.181-4.454-16.345
						C176.536,237.83,185.228,238.82,185.228,238.82z"/>
					<path style="opacity:0.4;fill:#2A2C2A;" d="M172.115,229.901c5.206,0.72,12.929-1.42,12.929-1.42s-15.529-3.768-15.946-0.239
						C169.098,228.242,169.496,229.538,172.115,229.901z"/>
				</g>
				<path style="fill:#2A2C2A;" d="M211.164,172.762c0,0-2.305,0.282-1.443,4.208c0.862,3.926,11.777,18.574,11.777,18.574
					S215.288,173.246,211.164,172.762z"/>
				<path style="fill:#2A2C2A;" d="M212.754,171.141c0,0-1.885-1.356-3.915,2.112c-2.03,3.469-3.947,21.636-3.947,21.636
					S215.456,174.294,212.754,171.141z"/>
				<path style="fill:#2A2C2A;" d="M181.975,248.771c0,0-0.925,2.538,3.598,3.717c4.523,1.18,25.467-2.396,25.467-2.396
					S184.654,244.753,181.975,248.771z"/>
				<path style="fill:#2A2C2A;" d="M212.09,170.555c0,0-0.646,1.16,0.599,2.207c1.245,1.048,18.31,5.714,18.31,5.714
					S214.43,167.062,212.09,170.555z"/>
				<path style="fill:#2A2C2A;" d="M215.512,172.762c0,0-4.451-1.218-2.824,2.165c1.628,3.383,20.968,15.926,20.968,15.926
					S223.698,177.459,215.512,172.762z"/>
			</g>
			<g>
				<path style="fill:#2A2C2A;" d="M242.274,244.125c-11.87,6.13-22.75,13.62-32.7,21.95c0,0-0.24-0.16-0.43-0.16h-0.04
					c-0.19,0.03-7.7,7.38-8.49,8.12c-0.01,0.01-0.02,0.03-0.03,0.04c-2.353,2.212-4.647,4.471-6.886,6.763
					c-0.239-0.681-0.63-1.567-0.932-1.135c-0.13,0.186-0.246,0.832-0.326,1.375c-1.307,1.413-11.752,14.173-11.856,14.296
					c0,0-0.01,0.01-0.01,0.03c-2.778,3.335-5.447,6.706-8.003,10.094c-0.675-0.709-1.89-1.933-1.89-1.541
					c0,0.361,0.294,1.417,0.492,2.091c-0.831,0.842-9.66,15.075-9.66,15.075c-2.745,4.173-5.329,8.305-7.766,12.367
					c-0.386-0.52-0.837-1.015-1.003-0.747c-0.311,0.503,0.259,2.474,0.259,2.474l0.009-0.005c0.076,0.246,0.262,0.458,0.54,0.535
					c0.464,0.128,0.741,0.746,1.272,0.315c1.359-1.103,7.21-11.55,11.62-18.19c4.41-6.64,6.44-9.07,6.44-9.38
					c0-0.32-0.77-0.71-0.77-1.03c0-0.31,0.71-0.12,0.9-0.31c0.19-0.2,2.1-2.69,6.32-8.62c4.21-5.94,13.72-16.21,14.36-16.47
					c0.64-0.26,0.57,0.51,0.83,0.7c0.25,0.19-4.41,4.6-9.39,10.6c-4.97,6-11.17,14.04-11.23,14.36c-0.06,0.32,0.77,0.51,0.89,0.77
					c0.13,0.25-1.78,2.74-5.1,7.34c-3.32,4.59-10.15,15.63-12,18.83c-1.85,3.19-1.79,3.06-1.41,3.63
					c0.39,0.58-6.44,11.17-9.98,18.39c-3.53,7.21-7.95,15.95-7.95,15.95c0.51,0.07,0.95,1.47,0.51,1.22
					c-0.45-0.26-2.87-1.02-3.19-1.28c-0.32-0.25-0.45,0.19-3,6.29c-2.56,6.1-5.05,13.63-5.43,15.41c-0.38,1.79-1.08,1.73-1.47,1.41
					c-0.38-0.32,0.26-2.11,2.24-7.85c1.98-5.75,5.81-16.03,6.57-16.15c0.77-0.13,1.85,0.83,2.11,0.57c0.27-0.25,0-0.7,0.96-2.3
					c0.95-1.59,6.06-11.17,9-17.23c2.93-6.06,7.02-13.21,7.21-13.92c0.19-0.7-1.02-0.76-0.96-1.27c0.03-0.28,1.577-0.001,1.58-0.002
					c1.409-0.364-2.184-0.638-3.046-1.098c-0.397-0.212-0.888-0.111-1.135,0.265c-3.312,5.043-13.999,28.174-13.999,28.174
					l-0.76,1.45c-0.71,1.51-1.37,2.97-2,4.39c-0.49-0.06-0.85,0-1,0.23c-0.77,1.25-5.32,15.59-5.32,15.59
					c-1.15,3.24-1.94,5.79-2.45,7.53c-0.52,1.75-0.74,2.68-0.74,2.68l6,2.55c1.79-5.02,3.57-9.92,5.4-14.67
					c1.5-3.76,5.43-9.58,4.96-10.42c-0.07-0.12-0.26-0.29-0.52-0.5c1.25-2.88,2.54-5.7,3.89-8.43
					c12.46-25.12,14.48-24.68,14.23-25.95c-0.05-0.27-0.34-0.57-0.77-0.88c3.12-5.63,6.27-10.95,9.42-15.99
					c2.35-3.69,9.68-12.44,9.62-12.94c-0.01-0.12-0.25-0.36-0.61-0.67c3.21-4.58,6.4-8.85,9.55-12.87c3.25-4,7.55-8.32,9.2-10.05
					c1.83-1.91,1.43-1.68,1.15-2.36c2.05-2.31,4.06-4.5,6.04-6.57c2.24-2.37,7.36-6.55,8.65-7.76c1.29-1.21,0.94-0.77,0.67-1.49
					C225.944,253.665,237.724,246.595,242.274,244.125z"/>
				<path style="fill:#2A2C2A;" d="M157.245,337.086c0.255-0.064,1.149-0.191,1.596,0.255c0.447,0.447,0.83,1.021,0.83,1.021
					s6.894-3.574,11.17-5.234c4.277-1.659,10.66-2.553,10.66-2.553s-0.08,0.112-0.559,0.447c-1.532,0.223-6.559,1.245-9.958,2.537
					c-3.399,1.292-12.064,6.75-12.973,7.612c-0.91,0.862-2.106,1.676-2.011,0.766c0.096-0.909,1.053-4.596,1.053-4.596"/>
				<path style="fill:#2A2C2A;" d="M180.844,328.972c0,0-0.852,0.568,0,2.556c0.852,1.988,9.585,15.336,9.585,15.336
					S183.187,328.191,180.844,328.972z"/>
				<path style="fill:#2A2C2A;" d="M179.987,331.386c0,0-1.605-0.022-2.103,3.233c-0.499,3.254,0.176,27.722,0.176,27.722
					S183.758,332.434,179.987,331.386z"/>
				<path style="fill:#2A2C2A;" d="M181.55,329.441c0,0-0.452,0.965,1.379,2.157c1.832,1.192,16.813,7.479,16.813,7.479
					S183.215,327.447,181.55,329.441z"/>
				<path style="opacity:0.4;fill:#2A2C2A;" d="M178.423,332.981c0,0-1.231-0.379-2.651,2.745c-1.42,3.124-4.26,18.365-4.26,18.365
					S182.967,334.212,178.423,332.981z"/>
				<path style="fill:#2A2C2A;" d="M149.841,335.172c0,0-1.723-0.622-6.574,1.285c-4.851,1.907-11.145,6.949-11.145,6.949
					S154.118,336.576,149.841,335.172z"/>
				<path style="fill:#2A2C2A;" d="M149.277,333.158c0,0-1.096-0.989-5.297-1.043c-4.2-0.054-10.432,1.792-10.432,1.792
					S152.041,335.508,149.277,333.158z"/>
				<path style="opacity:0.4;fill:#2A2C2A;" d="M150.519,334.144c0,0-1.854-0.066-5.941,3.275
					c-4.087,3.341-8.593,10.152-8.593,10.152S155.078,334.174,150.519,334.144z"/>
				<path style="fill:#2A2C2A;" d="M210.943,266.236c0,0-1.073-0.24-0.656,2.483c0.416,2.723,8.745,15.938,8.745,15.938
					S213.826,265.996,210.943,266.236z"/>
				<path style="opacity:0.4;fill:#2A2C2A;" d="M211.325,269.244c0,0-0.756-0.798-1.93,1.694
					c-1.174,2.492-1.633,18.106-1.633,18.106S213.852,270.653,211.325,269.244z"/>
				<path style="opacity:0.4;fill:#2A2C2A;" d="M205.726,263.889c0,0,0.376-1.033-2.378-0.97
					c-2.754,0.063-16.929,6.626-16.929,6.626S205.594,266.779,205.726,263.889z"/>
				<path style="fill:#2A2C2A;" d="M213.72,266.259c0,0-0.914,0.007-0.065,2.134c0.849,2.127,10.079,11.266,10.079,11.266
					S216.011,265.522,213.72,266.259z"/>
				<path style="fill:#2A2C2A;" d="M200.505,289.033c0,0-2.018,0.245-1.38,4.713c0.638,4.468,9.919,24.383,9.919,24.383
					S205.46,287.895,200.505,289.033z"/>
			</g>
			<g>
				<path style="opacity:0.4;fill:#2A2C2A;" d="M164.65,55.355c-7.314,20.861-13.96,42.474-19.591,64.204
					c-0.671-0.084-1.367-0.085-1.463,0.251c-0.191,0.67-4.852,26.145-4.852,26.145l0.003-0.002
					c-0.407,1.862-0.807,3.723-1.197,5.583c-0.17,0.83-0.73,2.1,0.33,2.5c0.26,0.07,0.64,0.17,1.17,0.31
					c2.24,0.57,3.58,0.56,3.9,1.01c0.26,0.36-3.75,0.14-5.35,0.04c-0.25,1.21-0.98-0.54-1.23,0.67c-0.89,4.45-1.26,11.84-2.09,16.26
					c-0.98,5.19-1.9,10.34-2.78,15.47c0.59,0.13,1.29,0.28,2.04,0.41c2.21,0.38,3.13,1.34,2.72,1.37c-0.42,0.03-2.24-0.32-3.48-0.52
					c-1.25-0.19-1.5,0-1.5,0c-0.36,0.07-0.66,0.21-0.8,0.46c-0.67,1.15-3.7,27.93-3.7,27.93c-0.41,2.79-0.8,5.56-1.18,8.31
					c-0.69,0.06-1.17,0.15-1.17,0.15c-0.43,0.06-0.38,3.32-0.62,7.78c-0.29,5.38-0.84,12.12-0.84,12.12l0.01,0.01
					c-0.49,4-0.96,7.95-1.4,11.85c0.22-0.09,0.46-0.14,0.7-0.11c1.72,0.19,0.06,4.28,1.32,4.34c1.27,0.06,1.1-3.96,1.36-8.94
					c0.25-4.98,0.64-3.76,1.27-2.95c0.64,0.8-0.7,7.36-0.76,10.17c-0.07,2.8-0.64,4.78-2.43,4.47c-1.78-0.31-2.24,0-2.24,0
					c-0.48,0.09-0.94,0.26-1.33,0.54c-1.92,1.4-0.04,11.39-1.19,25.02c-0.01,0.02-0.01,0.03-0.01,0.05
					c-0.81,9.13-1.49,17.78-2.07,25.91c-0.68,0.02-1.13,0.07-1.25,0.18c-0.55,0.51-0.21,14.98-0.06,20.54
					c-1.67,30.15-1.68,48.81-1.68,48.81l14,1.7c-0.97-17.24-1.22-34.85-0.91-52.54c0.79-7.93,2.08-16.26,2.31-16.98
					c0.09-0.25-0.65-0.51-1.82-0.75c0.36-9.44,0.86-18.87,1.5-28.26c0.2-1.56,2.21-16.95,2.67-19.41c0.42-2.26,1.42-3.01-0.89-3.52
					c0.49-5.49,1.01-10.95,1.56-16.36c0.84-7.51,4.54-21.53,3.41-22.6c-0.21-0.19-0.5-0.32-0.82-0.42c0,0-0.84-0.4-1.67-0.34
					c-0.83,0.06-3.19-0.45-4.34-0.45c-1.15,0-0.64-0.96,0.9-0.83c1.53,0.13,2.55,0.51,2.68-1.66c0.13-2.17,2.06-13.08,2.43-16.47
					c0.38-3.38,1.4-3.51,1.53-2.1c0.12,1.4-1.98,13.4-2.37,16.66c-0.38,3.25,1.12,2.91,1.3,1.41c0-0.01,0-0.02,0.01-0.03
					c0.19-1.55,0.38-3.1,0.58-4.64c0.2-0.93,5.63-26.22,4.78-27.25c-0.19-0.24-0.53-0.41-0.93-0.54c1.04-7.02,2.11-13.9,3.21-20.6
					c0.77-4.75,2.18-10.84,3.36-15.15c0.17-0.62-0.8-0.11-0.69-0.73c0.935-5.37,1.876-10.601,2.815-15.691
					c0.075-0.286,4.113-15.758,4.302-16.611c0.101-0.454-0.336-0.641-0.99-0.788c5.885-29.994,11.366-53.326,14.552-66.19
					C165.84,53.915,165.48,52.975,164.65,55.355z M125.02,316.885c-1.89-0.29-2.87-0.7-2.87-0.7c-2.78,0-3.26,0.28-3.64,3.25
					c-0.38,2.97-0.29,13.79-1.44,11.59c-1.14-2.2-0.19-11.97,0-14.17c0.03-0.31,0.05-0.55,0.06-0.72
					c0.276-0.229,2.828-0.414,5.083-0.751c0.605-0.091,0.063-0.965,0.797-0.929C126.84,314.655,126.91,317.175,125.02,316.885z"/>
				<path style="opacity:0.4;fill:#2A2C2A;" d="M88.3,381.975c0.4-6.32-0.05-12.65-0.58-18.95c-0.31-3.73-0.64-7.47-1-11.19v-0.06
					c0-0.04,0-0.08-0.01-0.13c-0.29-3.05,1.29-5.56,2.12-5.85s4.98-0.79,4.85-1.3c-0.13-0.52-3.64,0.19-5.43,0.83
					c-0.8,0.28-1.55,0.4-2.13,0.44c-0.02-0.17-0.03-0.34-0.05-0.51c-0.971-9.355-3.624-26.721-4.934-36.158
					c-0.674-4.857-1.284-6.144-0.516-6.232c0.83,0.51,1.25,1.48,1.62,2.38c5.13,12.6,10.3,25.32,12.49,38.74
					c-0.11-0.68,0.31-1.41,0.95-1.65c0.38,14.28,6.3,27.87,7.6,42.09L88.3,381.975z"/>
				<path style="fill:#2A2C2A;" d="M139.464,156.257c0,0-0.958,0.323-2.062,0.255c-1.104-0.067-1.787-0.064-1.979,0.83
					c-0.191,0.894-0.319,4.915-0.638,7.149c-0.319,2.234-0.032,3.287-0.798,6.926c-0.766,3.638-1.564,9.83-1.883,11.521
					c-0.319,1.691,0.319,1.149,0.543-0.287s1.883-7.372,2.266-10.053c0.383-2.681,0.606-4.468,0.957-8.043
					c0.351-3.574,0.16-6.223,0.862-6.894c0.702-0.67,0.83-0.894,2.234-0.702c1.404,0.191,0.957-0.606,2.138-0.255
					c1.181,0.351,1.883-0.255,1.021-0.447C141.263,156.065,139.464,156.257,139.464,156.257z"/>
				<path style="fill:#2A2C2A;" d="M146.018,120.734c0,0-1.085-0.86-1.468,0.672c-0.383,1.532-0.639,1.723-2.043,9.383
					c-1.404,7.66-4.144,20.936-4.146,21.894c-0.003,0.957-0.322,0.447,1.785,1.085c2.106,0.638,3.383,1.085,2.936,0.574
					c-0.447-0.511-2.872,0.255-2.617-1.404c0.255-1.66,2.234-11.426,2.745-14.936c0.511-3.511,0.511-6.255,0.575-8.298
					c0.064-2.043,0-3.853,0.957-5.437c0.958-1.584,1.468-0.781,2.681-1.215c1.213-0.433,0.383-1.518,1.851-1.008
					C150.742,122.555,151.189,121.083,146.018,120.734z"/>
				<path style="fill:#2A2C2A;" d="M91.771,346.864c0,0-3.072-0.426-3.55,1.776c-0.479,2.202-0.479,9.115,0.957,13.701
					c1.436,4.586,0.287,15.405,1.723,16.65c1.436,1.245,2.872,3.351,2.202-1.532c-0.67-4.883-1.149-12.351-2.011-16.277
					c-0.862-3.925,0.862-1.053,2.106,2.489c1.245,3.543,1.532,6.511,2.202,4.979c0.67-1.532-0.766-5.745-1.723-10.723
					c-0.957-4.979-3.638-5.457-3.064-7.372c0.574-1.915,2.968-0.862,3.064-1.915C93.774,347.586,94.215,346.509,91.771,346.864z"/>
			</g>
			<g>
				<g>
					<path style="fill:#2A2C2A;" d="M105.702,208.365c0,0-2.318-1.59-5.214,1.822c-2.896,3.412-14.155,27.862-14.155,27.862
						S109.976,213.192,105.702,208.365z"/>
					<path style="fill:#2A2C2A;" d="M105.335,214.828c0,0,1.46,0.55,0.613,3.778c-0.847,3.229-9.673,21.048-9.673,21.048
						S101.707,214.706,105.335,214.828z"/>
					<path style="fill:#2A2C2A;" d="M99.545,204.625c0,0,0.003,1.56-3.316,1.912c-3.319,0.352-23.11-1.585-23.11-1.585
						S98.373,201.189,99.545,204.625z"/>
					<path style="fill:#2A2C2A;" d="M102.846,207.232c0,0-2.301-22.211-2.968-26.409c-0.246,0.287,0.112-2.625,0.622,0.12
						c0.511,2.745,3.327,28.356,3.327,28.356S102.939,208.311,102.846,207.232z"/>
					<g>
						<path style="fill:#2A2C2A;" d="M123.167,252.704c0,0-12-37.213-25.149-51.862c-3.336-3.716-4.34-3.255-1.66-0.989
							c0.757,0.64,13.289,12.968,24.581,54.133L123.167,252.704z"/>
						<path style="fill:#2A2C2A;" d="M109.285,216.065c0,0-2.809,0.128-3.064,4.596c-0.255,4.468,5.489,30.766,5.489,30.766
							S115.604,217.342,109.285,216.065z"/>
						<path style="fill:#2A2C2A;" d="M177.034,155.441c0,0-1.246,0.935,0.031,3.061c1.277,2.126,12.112,12.378,12.112,12.378
							S180.326,154.054,177.034,155.441z"/>
						<path style="fill:#2A2C2A;" d="M175.899,153.477c0,0-1.536,0.261-1.374,2.735c0.162,2.475,5.103,16.549,5.103,16.549
							S179.461,153.751,175.899,153.477z"/>
						<path style="opacity:0.4;fill:#2A2C2A;" d="M175.349,155.362c0,0-1.548-0.174-2.076,2.249
							c-0.528,2.423,0.333,17.315,0.333,17.315S178.697,156.61,175.349,155.362z"/>
						<path style="fill:#2A2C2A;" d="M107.036,211.591c0,0,0.216-1.257,2.28-1.116c2.064,0.14,13.807,4.228,13.807,4.228
							S107.267,214.508,107.036,211.591z"/>
						<g>
							<path style="fill:#2A2C2A;" d="M186.104,152.044c0,0-7.149,0.894-16.468,5.234c-6.313,2.94-9.661,5.119-11.168,6.221
								c0.652-1.586,1.302-3.16,1.972-4.693c1.13-2.59,2.27-5.15,3.42-7.67c0.15-0.3,3.5-6.54,4.44-8.54
								c0.75-1.59,1.56-1.98,1.19-2.5c-0.14-0.21-0.2-0.46-0.09-0.69c2.038-4.162,4.109-8.208,6.195-12.167
								c0.282-0.4,2.355-3.348,3.424-5.131c1.149-1.915,1.277-1.66,1.245-1.947c-0.032-0.287-0.624-0.456-0.624-0.456
								c-0.34-0.14-0.76-0.35-1.23-0.61c-1.19-0.67-1.34-1.01-2.77-1.39c-0.65-0.17-1.29-0.62-1.81-1.05
								c0,0-0.683-0.867-1.354,0.618c-0.67,1.484-1.263,3.806-2.424,5.843c-0.023,0.041-0.033,0.071-0.053,0.109
								c-2.346,4.096-4.674,8.298-6.969,12.63c-0.46,0.69,0.89,0.33,1.36,0.52c1.34,0.55,0.28-0.82,2.44,0
								c2.15,0.81,1.48,2.15,1.67,2.58s-0.38,0.48-1.67-0.28c-1.3-0.77-1.34-0.34-2.68-1.1c-1.34-0.77-1.67-0.69-1.67-0.69
								s-0.16-0.16-0.42-0.16c-0.27,0-0.67,0.17-1.12,0.89c-0.89,1.41-3.5,9-8.28,19.15c-0.205,0.436-0.401,0.883-0.603,1.325
								c-0.431-1.074-0.973-2.006-1.349-1.179c-0.612,1.344,0.047,3.34,0.258,3.907c0.035,0.225,0.237,0.366,0.714,0.477
								c0.59,0.13,1.76,0.94,2.51,1.22c1.72,0.64,0.96,1.4,2.17,2.23c1.21,0.83-0.51,3.96-1.66,6.06c-1.15,2.11-1.4,3.2-3.77,8.49
								c-2.36,5.3-3.38,9.77-3.89,9.45c-0.51-0.32,2.17-7.85,3.51-10.59c1.34-2.75,2.68-6.64,4.02-9.71
								c1.34-3.06,0.96-3.38,0.39-3.7c-0.58-0.32-0.71,0-2.11-0.64c-1.41-0.64-2.94-1.2-2.94-1.2c-0.25-0.15-0.65-0.27-0.89,0.18
								c-0.38,0.72-2.98,7.94-4.89,13.88c0,0.01-0.01,0.02-0.01,0.03c-1.53,3.94-3.01,7.95-4.44,12c-0.17,0.56,0.63,0.22,0.95,0.48
								c0.87,0.71,1.11,1.27,2.04,2.16c0.92,0.89,0.86,0.37,3.09,1.13c2.24,0.77,0.9,0.54,0.48,0.58c-0.41,0.03-1.37-0.45-2.55-0.64
								c-1.18-0.19-1.92-0.54-3.32-1.21c-0.23-0.11-0.62-0.11-0.81-0.18c-0.64-0.27-0.84-0.42-0.91-0.4
								c-0.81,0.28-1.15,3.54-2.46,8.24c-1.422,5.064-3.566,11.595-4.975,16.045c-0.488-0.729-1.146-1.531-1.377-0.954
								c-0.383,0.958,0.342,4.319,0.342,4.319c0.43,0.25,1.13,0.58,2.18,0.96c2.23,0.82,1.15,0.19,4.16,1.15
								c3.02,0.96,1.63,1.15,1.34,1.25c-0.28,0.09-0.67-0.2-2.48-0.67c-1.82-0.48-1.68-0.63-3.45-1.06
								c-1.77-0.43-2.14-0.31-2.14-0.31c-0.58-0.04-1.12,0.11-1.45,0.65c-1.06,1.72-0.54,6.23-1.94,11.59
								c-0.03,0.1-0.04,0.18-0.06,0.27c-1.92,7.21-3.72,14.42-5.4,21.59c-0.74-0.25-1.2-0.12-1.27,0.87
								c-0.12,2.05-1.35,10.59-1.35,10.59l0.01,0.01c-1.278,5.819-2.486,11.586-3.625,17.268c-0.908-1.288-2.007-2.544-2.325-1.616
								c-0.569,1.66,1.385,6.57,1.385,6.57c0.023,0.279,0.157,0.54,0.374,0.727c0.48,0.41,1.03,1.16,2.33,1.58
								c3.07,0.99,4.91,0.12,4.6,1.9c-0.92-0.15-1.91-0.3-2.88-0.56c-2.86-0.77-6.89-3.07-6.89,1.02c0,4.08-1.85,18.8-1.85,18.8
								h0.01c-1.16,6.77-2.2,13.31-3.15,19.53c-0.1,0.63,0.35,0.7,0.96,0.86c0.56,0.14,1.29,0.08,2.11,0.19
								c3.64,0.48,7.43,1.68,6.44,2.74c-0.71-0.1-1.52-0.23-2.42-0.47c-3.64-0.99-8.42-2.02-8.9,1.05
								c-0.47,3.06-1.24,17.09-1.24,17.09l0.01,0.01c-3.32,25.06-4.61,41.31-4.61,41.31l16.08-0.13
								c0.07-14.99,0.67-29.54,1.72-43.67c0.52-6.65,2.5-11.31,2.69-13.37c0.09-1.03-0.42-1.37-1.4-1.56
								c0.81-8.13,1.76-16.11,2.85-23.95c1.07-6.53,4.98-16.03,4.23-17.41c-0.25-0.45-0.75-0.74-1.38-0.95
								c1.28-7.48,2.68-14.8,4.2-21.98c1.4-4.03,4.6-12.09,2.99-13.47c-1.62-1.38-4.22-0.43-6.61-1.49
								c-0.57-0.24-1.1-0.52-1.59-0.78c0.05-0.31,0.22-0.55,0.63-0.6c1.01-0.13,1.94,0.25,3.17,0.68c0.28,0.09,0.51-0.06,0.49-0.36
								c-0.13-2.12,2.51-7.15,3.59-11.03c1.27-4.6,1.72-3.45,3-8.81c1.27-5.36,2.61-4.53,2.1-2.94c-0.51,1.6-2.55,6.58-2.93,8.17
								c-0.39,1.6,0.32,2.43,0.12,3.58c-0.19,1.15,0.31,0.17-0.68,4.29c-0.73,3.03-2.4,6.38-2.59,7.46
								c-0.05,0.23,0.12,0.46,0.36,0.48c0.51,0.05,0.93,0.04,1.26,0.02c1.82-7.66,3.7-15.31,5.64-22.88
								c1.79-4.38,2.08-5.43,2.75-7.34c0.5-1.42,1.1-2.32-0.04-3c1.3-4.84,4.08-14.56,6.26-21.16c1.21-3.66,2.62-6.29,2.59-6.76
								c-0.02-0.22-0.11-0.4-0.27-0.55c-0.16-0.15-0.21-0.39-0.14-0.6c1.78-5.61,3.61-11.06,5.52-16.35
								c2.23-4.43,5.32-10.08,5.32-11.13c0-0.125-0.022-0.219-0.049-0.309c8.54-7.795,18.844-10.728,23.988-12.108
								C187.763,152.044,186.104,152.044,186.104,152.044z"/>
							<path style="fill:#2A2C2A;" d="M220.446,52.658c-0.032-0.456-0.108-1.052-0.289-0.946c-0.287,0.168-1.078,2.178-1.078,2.178
								l0.005,0.006c-0.104-0.051-0.261-0.101-0.504-0.101c-0.53,0-8.49,11.06-8.49,11.06c-0.71,0.87-1.42,1.74-2.13,2.63
								c-0.03-0.02-0.07-0.03-0.11-0.03c-1.2,0-7.852,10.261-8.875,11.63c-0.074-0.42-0.234-1.115-0.456-0.876
								c-0.311,0.335-0.689,2.13-0.689,2.13l-0.001,0.005c-0.841-0.253-1.39,2.141-1.39,2.141v0.01c-3.22,4.4-6.47,9.01-9.73,13.85
								c1.5,0.95,1.47,0.49,2.76,1.52c1.29,1.02,1.25,1.5,0.62,1.31c-0.62-0.19-0.95-0.76-2.53-1.67c-0.48-0.28-0.88-0.47-1.21-0.61
								c-1.04-0.51-1.1,1.11-1.52,1.76c-2.998,4.497-5.822,9.306-8.742,14.215c-0.432-0.822-1.027-1.715-1.314-1.055
								c-0.479,1.101-0.214,3.62-0.214,3.62c0.97,0.62,2.56,1.6,4.04,2.33c0.297,0.147,0.553,0.286,0.772,0.418
								c0.229,0.139,0.884,0.642,1.123,0.573c0.239-0.069,0.063-0.71,0.194-0.944c2.255-4.052,4.519-7.977,6.791-11.807
								c1.5-2.45,3.45-4.16,3.67-4.96c0.04-0.18,0.04-0.34-0.01-0.47c-0.08-0.27-0.04-0.57,0.11-0.81
								c2.83-4.61,5.66-9.03,8.46-13.27c0.05-0.06,1.76-1.9,2.45-2.78c0.7-0.89,0-0.89,0-0.89c-0.94-0.77-2.12-1.65-2.78-1.86
								c-1.21-0.38-1.08-0.86-0.25-0.73s1.24,0.03,2.52,1.4c0.27,0.29,0.54,0.54,0.81,0.75c2.13-3.15,4.23-6.17,6.32-9.09
								c0.78-1.06,2.66-2.51,2.66-2.84c0-0.18-0.05-0.33-0.23-0.55c1.5-2.06,2.98-4.07,4.44-6.02c2.54-3.4,6.52-6.5,6.37-7.46
								c-0.02-0.16-0.12-0.33-0.25-0.51c0,0-1.21-0.92-1.67-1.27c-0.44-0.33,1.19-0.1,1.97,0.89
								c10.417-13.236,19.546-23.825,25.666-30.164c0.364-0.377-0.298-0.24-0.685,0.112
								C240.65,31.297,231.292,40.372,220.446,52.658z M213.42,65.585c-2.52,3.67-2.65,4.02-2.65,4.02l-0.7-0.44
								c0,0-1.07-0.82-1.45-1.17c-0.29-0.27,1.14,0.29,1.85,0.57c0.73-1.07,2.35-3.38,4.07-5.44c2.33-2.77,4.98-6.06,5.39-5.74
								C220.35,57.705,215.94,61.915,213.42,65.585z"/>
						</g>
						<path style="fill:#2A2C2A;" d="M120.167,296.108c0,0,9.275-12.623,15.383-20.872c4.711-6.362,9.463-11.355,11.553-13.723
							c1.915-2.17,3.064-0.816,3.064-0.816s33.894-6.604,35.042-5.766c1.149,0.838-33.574,6.774-34.213,7.029
							s1.277,0.766,1.277,1.277c0,0.511-1.66-0.766-3.574,0.255c-1.915,1.021-21.447,24.255-26.426,33.702"/>
						<path style="fill:#2A2C2A;" d="M152.178,264.193c0,0-1.915,0.096-0.862,4.404c1.053,4.309,8.33,17.521,8.33,17.521
							S156.487,264.959,152.178,264.193z"/>
						<path style="fill:#2A2C2A;" d="M182.166,253.997c0,0-2.494,0.866,0.562,6.154s17.777,19.943,17.777,19.943
							S188.157,253.346,182.166,253.997z"/>
						<path style="fill:#2A2C2A;" d="M179.502,257.189c0,0-1.788,0.089-0.805,4.113c0.984,4.023,7.778,16.361,7.778,16.361
							S183.525,257.904,179.502,257.189z"/>
						<path style="opacity:0.4;fill:#2A2C2A;" d="M181.156,256.632c0,0-1.745-0.399-1.891,3.74
							c-0.146,4.139,3.044,17.858,3.044,17.858S184.834,258.412,181.156,256.632z"/>
						<path style="opacity:0.4;fill:#2A2C2A;" d="M151.954,267.436c0,0-1.745-0.4-1.891,3.74
							c-0.146,4.139,3.044,17.858,3.044,17.858S155.632,269.216,151.954,267.436z"/>
						<path style="opacity:0.4;fill:#2A2C2A;" d="M149.369,265.135c0,0-0.24-1.774-4.166-0.454
							c-3.926,1.32-15.645,9.133-15.645,9.133S148.996,269.204,149.369,265.135z"/>
						<path style="fill:#2A2C2A;" d="M183.205,254.21c0,0-1.297,1.234,2.072,3.643c3.369,2.409,16.566,7.332,16.566,7.332
							S186.722,252.129,183.205,254.21z"/>
						<path style="fill:#2A2C2A;" d="M150.475,263.804c0,0-2.176-1.221-4,4.255c-1.824,5.476-2.958,25.072-2.958,25.072
							S154.691,267.632,150.475,263.804z"/>
						<path style="opacity:0.4;fill:#2A2C2A;" d="M159.665,135.598c0,0-1.378-8.239-7.35-20.307
							c-3.85-7.781-10.994-16.384-14.872-20.739c-2.137-2.4-3.302-2.569-2.331-2.814c2.733-0.689,14.614,15.101,18.466,23.083
							c4.766,9.876,7.235,20.538,7.12,20.777C160.584,135.837,159.908,136.787,159.665,135.598z"/>
						<path style="fill:#2A2C2A;" d="M141.596,94.112c0,0-3.575-1.608-4.9,6.814c-1.325,8.422-1.931,22.126-1.931,22.126
							S143.855,98.897,141.596,94.112z"/>
						<path style="fill:#2A2C2A;" d="M144.408,95.818c0,0-3.899,0.409-0.808,8.354c3.091,7.945,9.46,20.095,9.46,20.095
							S148.767,98.818,144.408,95.818z"/>
						<path style="opacity:0.4;fill:#2A2C2A;" d="M141.58,98.629c0,0-2.135-3.287-7.809,3.076s-13.603,17.557-13.603,17.557
							S140.888,103.874,141.58,98.629z"/>
						<path style="opacity:0.4;fill:#2A2C2A;" d="M160.702,133.139c0,0-0.463-4.536-1.612-7.867
							c-1.148-3.33-2.928-7.752-2.871-7.982c0.057-0.23,0.23-0.997,1.436,1.971c1.206,2.968,2.124,5.839,2.756,8.767
							c0.632,2.928,0.919,6.776,0.861,7.005C161.215,135.263,161.044,135.618,160.702,133.139z"/>
						<path style="fill:#2A2C2A;" d="M191.721,94.978c0,0-1.926,0.117,0.383,11.881c2.337,11.907,4.787,18.377,4.787,18.377
							S195.765,94.364,191.721,94.978z"/>
						<path style="fill:#2A2C2A;" d="M191.217,99.349c0,0-1.388-0.443-2.971,8.472c-1.602,9.023-1.058,14.671-1.058,14.671
							S194.233,100.02,191.217,99.349z"/>
						<path style="fill:#2A2C2A;" d="M194.952,95.96c0,0-1.029,0.742,4.389,6.469c5.484,5.797,9.549,8.489,9.549,8.489
							S196.985,94.197,194.952,95.96z"/>
						<path style="opacity:0.4;fill:#2A2C2A;" d="M185.566,100.395c0,0,0.348-0.914-9.292,1.671
							c-9.758,2.616-13.69,4.853-13.69,4.853S186.305,103.719,185.566,100.395z"/>
						<path style="opacity:0.4;fill:#2A2C2A;" d="M212.341,105.854c0,0-5.877-23.203-9.097-22.091c0,0-0.618-0.058-0.476,1.601
							c-0.147,1.229-0.25,3.584-0.136,8.102c0.256,10.099,1.507,14.446,1.507,14.446s0.85-8.262,0.854-15.066
							c0,0.001,0,0.002,0.001,0.002C208.704,102.245,212.341,105.854,212.341,105.854z"/>
					</g>
				</g>
				<path style="opacity:0.4;fill:#2A2C2A;" d="M101.244,122.491c0,0-16.757,12.064-23.076,22.021c0,0,20.681-13.851,25.66-19.277
					C108.806,119.81,104.787,119.809,101.244,122.491z"/>
				<path style="opacity:0.4;fill:#2A2C2A;" d="M107.036,124.267c0,0-5.322,9.905-12.212,34.99c0,0,9.578-17.204,13.535-26.634
					v21.719c0,0,4.99-22.085,4.538-27.319C112.444,121.789,109.133,119.691,107.036,124.267z"/>
				<path style="fill:#2A2C2A;" d="M115.079,134.363c0,0-3.497,0.287-0.912,11.777c2.585,11.489,4.883,15.415,4.883,15.415
					S119.15,133.98,115.079,134.363z"/>
				<path style="opacity:0.4;fill:#2A2C2A;" d="M87.933,257.189c0,0-22.404,16.481-24.894,21.221c0,0,18.245-11.249,23.293-15.366
					c0,0-5.771,20.202-5.005,30.543c0,0,9-31.308,9.287-33.606C90.901,257.682,89.094,256.327,87.933,257.189z"/>
				<path style="fill:#2A2C2A;" d="M90.645,256.621c0,0-1.925,0.229-1.435,3.678c0.49,3.449,2.426,28.734,2.426,28.734
					S94.895,254.91,90.645,256.621z"/>
				<path style="fill:#2A2C2A;" d="M58.061,149.299c0,0-14.17,13.629-16.468,46.74C41.593,196.039,68.274,143.874,58.061,149.299z"
					/>
				<path style="fill:#2A2C2A;" d="M63.04,155.36c0,0-2.65,3.897,8.808,33.766C71.848,189.126,69.295,153.952,63.04,155.36z"/>
				<path style="fill:#2A2C2A;" d="M88.125,165.143c0,0-16.628-19.865-37.133-25.131c0,0-2.122-1.755,1.708-0.734
					c3.83,1.021,19.277,6.766,36.383,24.766C89.082,164.044,90.742,165.732,88.125,165.143z"/>
				<path style="opacity:0.4;fill:#2A2C2A;" d="M55.572,145.661c-6.279,1.063-13.213,3.887-23.553,9.699
					c-10.34,5.812-17.042,13.089-17.042,13.089s9.479-3.83,21.447-8.713c11.696-4.772,18.279-7.461,21.16-8.904
					C60.463,149.388,63.227,144.365,55.572,145.661z"/>
				<g>
					<path style="fill:#2A2C2A;" d="M82.485,88.065c0,0-19.404-23.285-36.739-28.201c0,0,10.922,8.33,21.379,18.328
						c3.28,3.136,7.261,8.429,9.75,11.266c-6.128-2.011-12.108-2.197-19.917-2.083c0,0,16.386,6.899,24.665,8.279
						C86.046,96.392,86.689,93.624,82.485,88.065z"/>
					<path style="fill:#2A2C2A;" d="M82.891,74.044c-8.666-14.23-12.096-17.425-12.096-17.425
						c7.117,11.234,14.277,32.223,14.277,32.223c0.659,3.426,2.016,3.803,2.719,3.674C90.008,92.108,88.399,83.089,82.891,74.044z"
						/>
				</g>
				<path style="opacity:0.4;fill:#2A2C2A;" d="M81.806,92.851c0,0-7.479,1.068-18.197,18.386c0,0,11.814-8.264,17.048-11.845
					C85.891,95.81,85.636,92.318,81.806,92.851z"/>
			</g>
		</g>
		<path style="fill:#2A2C2A;" d="M282.487,467.491c0,0-2.809,0-8.17,1.787c-5.362,1.787-2.298,3.471-7.915,4.289
			s5.362,0.459,24.255,0c18.894-0.459,23.489,0.052,24.766-1.225s3.064-2.809-7.66-3.064c-10.723-0.255-10.468-3.064-14.553-3.319
			S282.487,467.491,282.487,467.491z"/>
		<path style="opacity:0.4;fill:#2A2C2A;" d="M151.949,392.289c3.148,6.73,10.346,11.362,17.776,11.439
			c2.328,0.024,4.937-0.276,6.712,1.23c1.359,1.153,1.805,3.052,2.895,4.462c2.794,3.616,9.178,3.395,11.13,7.526
			c0.806,1.706,0.583,3.721,1.143,5.523c1.125,3.62,5.812,5.614,9.2,3.915c1.432,7.264,9.895,12.253,16.944,9.988
			c1.967-0.632,3.827-1.736,5.891-1.843c4.949-0.258,8.929,5.202,13.857,4.673c0.896-0.096,1.794-0.395,2.682-0.238
			c0.888,0.157,1.747,1.04,1.435,1.886c-5.486,0.53-11.052,0.221-16.446-0.913c0.142,2.966,1.036,5.892,2.575,8.431
			c-5.811,0.558-11.707,0.228-17.419-0.975c-2.13,1.534-1.565,4.982,0.094,7.016c3.062,3.756,9.088,4.643,13.104,1.93
			c2.215,1.136,2.143,4.631,0.394,6.403c-1.749,1.772-4.437,2.19-6.925,2.231c-9.776,0.164-19.054-3.947-27.962-7.977
			c-3.175-1.436-6.41-2.912-8.966-5.28c-3.543-3.282-5.422-7.927-7.984-12.021c-5.825-9.31-15.423-15.895-25.84-19.371
			c-4.622-1.543-9.493-2.547-13.695-5.014c-4.203-2.466-7.728-6.887-7.371-11.747c0.283-3.856,3.044-7.267,6.527-8.945
			c3.483-1.678,7.566-1.791,11.345-0.976"/>
		<path style="opacity:0.4;fill:#2A2C2A;" d="M4.763,430.101c3.093-0.69,6.334-0.714,9.437-0.069
			c0.959,0.199,1.936,0.463,2.903,0.309c0.978-0.155,1.834-0.72,2.745-1.11c2.647-1.135,5.665-0.771,8.519-0.387
			c5.132,0.69,10.264,1.38,15.396,2.071c0.311-1.371,0.621-2.741,0.932-4.112c2.878-0.588,5.725,0.841,8.518,1.75
			c7.333,2.388,15.766,1.097,22.048-3.376c-6.728,0.21-13.65,0.39-19.971-1.924c-1.913-0.701-3.763-1.628-5.767-1.993
			c-4.213-0.767-8.503,1.033-12.775,0.746c-5.892-0.396-11.134-4.702-17.033-4.437c-2.987,0.134-5.78,1.441-8.481,2.724
			c-4.098,1.947-8.742,4.62-9.256,9.128c-0.449,3.941,2.587,7.676,2.081,11.611c-0.257,1.997-2.665,6.002-0.797,7.866
			c1.817,1.814,2.367,0.702,3.481-1.118C9.368,443.488,5.982,434.407,4.763,430.101z"/>
		<path style="fill:#2A2C2A;" d="M52.702,374.691c-4.31-0.065-8.621-0.131-12.931-0.196c-0.75-0.011-1.509-0.022-2.242,0.14
			c-0.735,0.163-1.419,0.494-2.12,0.768c-2.129,0.831-4.398,1.084-6.69,1.212c-4.839,0.27-5.27,1.754-0.159,2.034
			c2.868,0.588,5.759,1.031,8.68,1.028c4.568-0.006,9.114-1.107,13.667-0.743"/>
		<path style="fill:#2A2C2A;" d="M384.072,459.416c1.755,0.032,1.26-1.645-1.564-1.947c-2.598-0.278-9.69,0.394-12.378,0.576
			c-0.35,0.02-0.68,0.04-0.98,0.06c-1.41,0.06-2.77-0.81-3.1-2.18c-2.57-10.92-52.95-0.04-72.88-10.96
			c-0.85-0.46-1.72-0.99-2.18-1.84c-0.88-1.6-0.05-3.86-1.24-5.24c-0.93-1.07-2.56-1.02-3.95-1.3c-5.2-1.07-7.38-7.06-10.3-11.5
			c-6.61-10.08-19.54-13.7-31.48-15.36c-7.81-1.08-16.23-1.89-22.19-7.05c-2.58-2.23-4.49-5.14-6.97-7.48
			c-6.46-6.13-15.98-7.76-24.89-7.71c-8.9,0.05-17.85,1.49-26.67,0.29c-10.38-1.4-19.89-6.34-29.49-10.54
			c-3.97-1.74-8.27-3.39-12.52-2.59c-2.99,0.57-5.62,2.3-8.43,3.48c-9.14,3.85-20.6,1.24-27.18-6.18c-2.33-2.63-4.36-5.96-7.76-6.84
			c-1.79-0.47-3.68-0.15-5.48,0.29c-12.03,2.93-22.7,10.1-34.36,14.16c-6.28,2.19-25.44,1.64-29.3,7.49
			c-5.74,6.43,33.08,3.39,41.71,3.4c8.85,0.01,20.01,1.65,22.45,10.16c1.22,6.06-36.07-0.08-54.1-0.17
			c-18.84-0.73-15.75,2.66-15.42,4.5c0.18,0.98,6.13,2.3,18.13,0.26c5.28-0.9,6.25,4.87-0.79,6.05c-5.24-1.74-18.71,7.2-10.19,10.06
			c0.72,1.99,16,1.81,20.3,1.06c3.98-0.7-5.79-4.53,4.02-4.5c8.69,0.03,19.53,0.71,29.54,1.81c7.83,0.28,15.68-0.2,23.42-1.42
			c1.35-0.21,2.72-0.44,4.07-0.22c0.96,0.17,1.87,0.56,2.73,1.02c5.74,3.05,10.07,9.1,16.51,9.97c1.44,0.19,3.21,0.29,3.86,1.59
			c0.55,1.13-0.21,2.55-1.33,3.12c-1.11,0.57-2.44,0.49-3.68,0.3c-5.49-0.85-11.12-3.66-16.35-1.77c-1.08,0.39-2.09,0.97-3.17,1.38
			c-3.66,1.38-7.72,0.66-11.59,0.15c-1.61-0.21-3.23-0.39-4.85-0.51c-6.37,1.29-10,2.98-2.05,6.59c4.79,0.99,9.67,3.5,14.53,4
			c2.45,0.25,2.88,1.88,0.57,2.74c-8.71,3.29-18.6,3.5-27.39,0.38c-2.98-1.05-5.96-2.49-9.11-2.29c-2.9,0.18-5.5,1.72-8.05,3.12
			c-10.62,5.85-41.55,5.65-34.16,11.98c3.13-0.1,12.03,0.38,14.92,1.62c1.62,1.73-7.03,3.53-7.67,5.24c-2.29,12,49.4,0.3,74.27-1.07
			c11.32-0.62,22.66-0.17,33.98,0.2c10.64,0.36,24.23,1.42,38.7,2.65c-5.88,0.31-11.07,0.47-14.15,0.32
			c-10.97-0.51-30.89,0.11-41.36,0.06c-10.47-0.06-27.34,0.71-26.82,2.5c0.52,1.78,130.21,1.05,130.21,1.05
			c10.54,0.72,20.29,1.19,28.37,1.19c12.99,0,21.63-1.23,22.2-4.67c-6.48-7.45-25.13-9.55-34.89-8.05
			c-5.61,0.87-11.09,0.11-16.53-1.25c-8-1.99-12-11.03-8.19-18.34c0.04-0.06,0.07-0.13,0.11-0.19c1.78-3.39-0.11-7.5-3.8-8.51
			c-2.82-0.77-5.56-1.86-8.13-3.25c-7.64-2.21-7.39-3.38-3.37-3.89c0.83-0.11,3.88-0.27,3.31-0.88c-0.05-0.06-2.8-0.94-2.85-1
			c-1.24-1.45-1.41-3.49-1.96-5.31c-1.4-4.68-5.81-8.29-10.67-8.75c-2.33-0.22-5.03,0.1-6.64-1.6c-0.41-0.42-0.74-0.97-1.28-1.18
			c-0.47-0.18-1-0.07-1.49,0.04c-6.66,1.48-12.66,1.04-19.47,0.56c-10.15-0.57-10.68-2.47-1.72-2.29c5.07,0.39,16.27,0.57,15.19-0.9
			c-1.4-1.75-4.01-1.64-6.21-2.07c-4.11-0.81-5.09-5.49-0.06-4.53c4.7,0.9,7.56,3.22,12.53-0.05c0.95-0.62,1.84-1.4,2.95-1.68
			c1.75-0.44,3.56,0.48,5.02,1.56c2.15,1.6,3.99,3.63,5.39,5.92c0.81,1.34,1.53,2.84,2.84,3.7c2.43,1.61,6.29-0.23,6.57-3.13
			c4.23,0.1,7.58,3.53,10.07,6.95c2.49,3.42,4.85,7.28,8.71,9.02c1.23,0.56,2.59,0.88,3.64,1.73c1.05,0.84,4.14,2.75,1.65,3.07
			c-0.41,0.05-10.98-0.06-7.53,1.28c2.49,1.66,15.02,0.68,17.55,1.08c3.16,0.5,6.55,1.37,8.53,3.89c1.07,1.35,1.64,3.08,2.9,4.25
			c3.71,3.46,10.43-0.01,14.55,2.94c3.83,1.12-1.33,7-0.83,10.5c1.55,0.19,2.92,1.88,3.86,3.64c0.71,1.34,1.92,2.32,3.32,2.83
			c-3.58,0.28-6.53,0.73-7.24,1.44c-2.11,2.11-3.26,2.3,7.09,1.92c10.34-0.39,22.97,0.76,34.46-0.19
			c11.49-0.96,23.07,0.19,32.75-0.77c3.88-0.38,7.89-0.6,11.29-0.72c9.03,1.39,17,3.91,25.96,3.61l-0.04,0.02
			c0,0,7.508-0.193,12.51-0.19C377.146,460.129,382.884,459.395,384.072,459.416z M90.2,390.795c-0.447,0.802-4.85,0.28-7.27,0.42
			c-0.63,0.03-1.27,0.07-1.86,0.3c-0.98,0.38-1.71,1.25-2.7,1.6c-3.19,1.12-6.39-3.28-9.45-3.86
			c-4.08-0.77-13.226-0.066-12.486-1.296c0-0.52,7.744-0.556,11.394-0.606c2.75-0.04,4.383,1.253,7.083,1.743
			c4.05,0.74,8.24,0.71,12.28-0.07c0.74-0.15,1.53-0.31,2.24-0.04C90.13,389.255,90.64,390.175,90.2,390.795z M135.12,433.645
			c-0.32,0.29-0.81,0.28-1.24,0.25c-2.68-0.2-5.35-0.53-8-0.98c-1.96-0.34-4.19-0.68-5.77,0.53c-0.23,0.18-0.44,0.39-0.71,0.5
			c-0.54,0.24-1.16,0.06-1.71-0.13c-0.41-0.14-0.88-0.35-0.94-0.77c-0.05-0.35,0.21-0.65,0.45-0.91c1.42-1.47,2.75-2.76,4.95-2.67
			c1.37,0.05,2.69,0.53,4.02,0.92c2.95,0.88,6.01,1.38,9.09,1.48C135.45,432.475,135.6,433.235,135.12,433.645z"/>
		<path style="fill:#2A2C2A;" d="M43.817,380.034c-2.199-9.466-8.356-17.517-15.079-24.534
			c-5.254-5.484-11.333-10.739-18.771-12.274c1.663,0.175,2.923,1.52,4.053,2.752c2.346,2.56,4.868,5.043,7.943,6.656
			c3.447,1.809,7.473,2.461,10.667,4.687c3.609,2.515,4.773,4.054,6.664,8.026c-4.07-9.499-8.743-15.665-14.268-24.398
			c2.633,4.543,8.362,7.686,11.492,11.903c2.72,3.664,3.058,8.243,4.228,12.654c1.358-5.12-0.249-10.565,0.33-15.83
			c0.422-3.833,1.984-7.435,3.528-10.968c-1.968,3.88-0.333,8.497,0.253,12.809c0.413,3.037,0.277,6.12,0.507,9.176
			c0.234,3.107,0.845,6.172,1.454,9.228c0.985-5.414,3.653-10.511,7.542-14.405c-0.677,3.999-1.838,7.916-3.45,11.638
			c1.865-0.937,3.052-2.834,3.871-4.754c0.819-1.92,1.373-3.966,2.45-5.753c1.544-2.562,4.07-4.415,6.793-5.654
			c2.723-1.238,5.661-1.917,8.576-2.589c-4.173,1.82-6.938,5.772-9.639,9.437c-2.341,3.176-4.792,6.27-7.349,9.275
			c3.63-2.717,7.438-5.515,11.901-6.315c-3.159,1.265-6.171,3.109-8.25,5.802s-3.113,6.327-2.162,9.594"/>
		<path style="opacity:0.4;fill:#2A2C2A;" d="M41.565,378.254c-6.341-4.945-13.126-9.32-20.247-13.055
			c-2.691-1.412-5.529-2.758-8.565-2.893c3.791-0.234,7.493,1.155,10.91,2.814c3.417,1.659,6.721,3.625,10.369,4.685
			c-0.121-1.81-1.487-3.275-2.877-4.441c-1.39-1.166-2.944-2.273-3.706-3.919c4.515,2.142,8.533,5.324,11.653,9.228
			c-2.015-8.632-4.044-17.477-3.002-26.279c0.535,3.182,2.192,6.043,3.476,9.003c2.073,4.778,3.206,9.961,3.317,15.168
			c2.164-4.135,1.425-9.732,4.786-12.971c-0.215,2.575-0.429,5.149-0.644,7.724c-0.393,4.718-0.785,9.477-0.181,14.172"/>
		<path style="fill:#2A2C2A;" d="M171.983,390.996c-2.164-6.213-6.958-11.127-11.944-15.419c5.683,0.893,10.752,4.989,12.818,10.358
			c0.401-2.592,0.802-5.183,1.203-7.775c0.22,2.537,0.439,5.075,0.659,7.612c0.991-6.158,5.701-11.565,11.665-13.391
			c-4.423,3.125-7.338,8.293-7.723,13.695c1.01-1.457,2.552-2.535,4.266-2.983c-0.422,2.51-3.007,4.217-3.482,6.717"/>
	</g>
	<g>
		<path style="fill:#2A2C2A;" d="M512.09,425.861c18.192,0.066,39.525-0.092,55.716-0.626c11.178-0.368,19.306-0.462,24.702-2.632
			c5.126-2.061,14.809-2.455,37.021-18.815c7.444-5.483,7.213-7.079-1.787-0.574c-9.61,6.945-16.977,11.537-34.851,14.17
			c-11.857,1.747-43.549,2.775-55.532,2.537c-20.134-0.398-52.085,0.91-63.447-2.027c-8.549-2.209-28.28-11.393-40.468-17.106
			c-10.213-4.787-8.516-2.922-6.037-1.588c3.872,2.085,25.09,13.97,25.007,13.919c2.289,1.392,18.077,8.555,23.798,9.829
			C487.958,425.564,500.106,425.817,512.09,425.861z"/>
		<path style="opacity:0.5;fill:#2A2C2A;" d="M587.98,418.475l-73.5,3.03c0,0-0.86-29.45-1.25-36.18
			c-0.39-6.73-4.69-16.49-10.78-14.54c-5.21,1.67-7.51,8.76-8.07,10.76c-0.09,0.34-0.13,0.53-0.13,0.53
			c-1.86,8.49-0.79,11.98-1.18,12.26c-0.85,0.63-0.39-7.38,0-12.26c0.39-4.89,2.74-12.38,8.03-13.9c3.61-1.03,33.07,0.42,57.46,5.11
			c0.37,0.51,0.7,1.07,0.97,1.63c1.04,2.15,1.47,4.54,1.8,6.91c0.54,3.84,0.84,7.71,0.9,11.59c0.01,0.51,0.16,1.18,0.67,1.21
			c1.69-5.19-1.604-15.698-0.4-16.24c0.774-0.256,0.998,4.276,1.333,4.196c0.909,0.144-0.333-6.446-0.833-8.396
			c9.48,2.05,17.84,4.62,23.09,7.77C596.43,388.155,587.98,418.475,587.98,418.475z"/>
		<path style="fill:#2A2C2A;" d="M517.443,421.787c1.368-2.592,1.265-5.935,1.232-8.865c-0.275-24.358,0.268-33.965-3.179-40.668
			c2.746,1.8,2.79,1.587,4.163,11.865c0.161,1.207,0.228,1.883,0.401,3.615c0.12,1.204,0.629,2.964,1.87,2.776
			c1.009-0.153,1.095-1.508,1.142-2.527c0.147-3.185-0.843-6.312-0.318-5.382c0.789,2.594,1.233,5.293,1.317,8.003
			c0.013,0.419,0.031,0.876,0.306,1.192c0.236,0.271,0.606,0.374,0.955,0.46c3,0.742,6.687,1.259,10.175,1.55
			c2.855,0.238,4.333-0.751,4.435-3.614c0.096-2.681-0.398-5.045-1.149-5.84c1.388,0.096,3.117,1.388,3.117,12.926
			c0,6.512-1.565,11.565-0.759,18.027c0.045,0.362,0.104,0.751,0.358,1.012c0.26,0.267,0.658,0.334,1.027,0.386
			c4.689,0.652,9.413,1.055,14.145,1.207c0.31,0.01,0.65,0.009,0.888-0.19c0.255-0.214,0.304-0.581,0.335-0.913
			c0.212-2.259,0.424-4.517,0.635-6.776c0.39,2.277,0.779,4.555,1.169,6.832c0.024,0.141,0.056,0.295,0.169,0.382
			c0.103,0.08,0.244,0.081,0.374,0.079c5.855-0.1,11.709-0.2,17.564-0.3c0.668-5.795,0.506-11.686-0.479-17.436
			c1.613,1.836,1.792,4.487,1.891,6.928c0.146,3.588,0.291,7.177,0.436,10.765c1.829,0.068,3.673-0.321,5.318-1.123
			c0.882,0.727,0.356,2.287-0.651,2.827c-1.007,0.54-2.222,0.406-3.364,0.364c-3.011-0.111-5.992,0.522-8.985,0.867
			c-14.372,1.655-23.227,0.587-37.594,2.284c0.129,0.753-6.541-2.79-7.299-2.702c-1.589,0.186-3.178,0.371-4.767,0.557"/>
		<path d="M420.614,390.895"/>
		<path style="fill:#2A2C2A;" d="M484.36,414.175c-0.67-2.82-0.86-7.27-1.62-9.96c-0.5-1.75-1.14-2.64-1.52-3.05
			c0.1-0.07,0.2-0.15,0.27-0.26c0.14-0.22,0.21-0.51,0.13-0.76c-0.04-0.1-0.11-0.22-0.19-0.31c-0.02-0.01-0.13-0.08-0.22-0.13
			c0.15-0.21,0.3-0.39,0.33-0.72c0.06-0.5-0.1-1-0.24-1.47c-0.37-1.29-0.76-2.56-1.17-3.83c-0.38-1.21-0.87-2.4-1.17-3.62
			c0-0.01,0-0.01,0-0.01c0.05-0.03,0.11-0.05,0.16-0.07c0,0-0.01-0.18-0.04-0.47l0.32,0.23c0,0,0.51-3.06-0.58-5.3
			c-1.1-2.23-1.58-2.97-1.58-2.97s0.3-0.26,0.21-0.8c-0.08-0.53-0.04-0.77-0.28-1.08c0.06-0.41,0.64-0.69,0.64-1.21
			c0-1.85-1.15-2.62-0.9-4.79c0.26-2.17,0.48-5.93,0.43-6.89c-0.04-0.96,0.59-0.19,0.47,0.25c-0.13,0.45-0.35,0.26-0.23,1.41
			c0.13,1.15,0.11,1.73-0.23,3.03s-0.2,2.78,0,3.61c0.2,0.83,1.33,2.21,1.24,3.88c0.9-0.86,2.52-5.16,2.34-5.96
			c-0.26-1.17-2-4.39-3.05-8.22c-0.65-2.43-2.37-4.02-4.29-4.7c-0.03-0.2-0.05-0.37-0.06-0.52c-0.02-0.21-0.09-0.57-0.2-1.01
			c3.63-0.07,6.03-0.79,6.03-0.79s-7.5-10.68-9.3-10.99c-1.3-0.23-11.91,7.61-11.91,7.61c2.37,1.5,4.75,2.49,7.02,3.13
			c0.19,0.94,0.58,2.14,1.41,2.87c0.48,0.42,0.92,0.64,1.31,0.77c-0.71,0.42-1.4,0.85-1.78,1.16c-0.97,0.78-3.77,9.82-4.23,11.31
			c0,0-3.12,1.56-5.01,2.28c-1.88,0.72-4.14,1.72-4.14,1.72l1.87,4.26c0,0,5.27-1.4,9.8-3.02c0,0,1.41-0.68,1.8-0.78
			c0.38-0.09,0.45-0.95,0.83-1.6c0.39-0.65,0.41-1.89,1.03-3.3c0.63-1.42,0.63-1.85,0.72-1.73c0.1,0.12,0,0.36-0.21,1.63
			c-0.22,1.27-0.27,0.53-0.6,1.63c-0.34,1.1-0.41,0.91-0.07,1.03c0.05,0.02,0.07,0.02,0.09,0.03c-0.08,0.01-0.27,0.11-0.4,0.69
			c-0.22,0.98-0.92,1.41-0.98,1.89c-0.04,0.36-1.27,0.53-2.22,0.82c0,0.13,0.02,0.29,0.08,0.47c-0.28,0.13-0.25,1.41-0.21,1.76
			c-1.98,1.72-3.11,5.19-3.11,5.19s0.06,0.02,0.17,0.04c-0.4,0.64-0.8,1.29-1.2,1.93c-0.53,0.86-1.09,1.71-1.6,2.58
			c-0.4,0.68-1.63,1.47-1.38,2.26c0.06,0.19,0.17,0.38,0.3,0.56c-0.36,0.55-0.72,1.14-0.84,1.57c-0.29,1.01-0.24,4.93,0,8.29
			c0.24,3.35,0.14,8.42,0.14,8.42s2.54,1.39,3.07,1.44c0.52,0.05,0.19-4.17,0.38-5.84c0.19-1.68,2.54-7.61,2.25-8.86
			c-0.14-0.6-0.04-1.28,0.1-1.82c0.26,0.1,0.5,0.16,0.7,0.08c0.33-0.13,0.26-1.07,0.32-1.4c0.18,0.04,0.36,0.08,0.54,0.04
			c0.26-0.05,0.48-0.22,0.57-0.47c0.07-0.22,0.04-0.44-0.09-0.63c-0.01-0.03-0.13-0.13-0.24-0.22c0.93-0.45,1.57-1.3,2.16-2.15
			c0.75-1.06,0.76-1.19,1.68-2.09c0.32,3.99,1.15,7.79,4.74,10.02c-0.23,0.21,0.35,0.27,0.15,0.51c-0.17,0.22-0.02,0.6,0.24,0.66
			c0.34,0.08,0.68,0.11,1.01,0.11c-0.01,0.01-0.02,0.02-0.03,0.04c-0.17,0.24-0.33,1.15-0.07,1.25c0.19,0.06,0.4,0.07,0.61,0.03
			c0.14,0.51,0.41,1.35,0.92,2.69c1.15,3.07,6.7,14.59,6.7,14.59l3.83-0.37C486.28,419.775,485.03,417.005,484.36,414.175z
			 M466.22,391.225c-0.7,0.94-1.35,2.18-2.53,2.57c-0.16,0.04-0.48,0.08-1.06-0.03c-0.46-0.09-1.24-0.41-1.67-0.73
			c-0.35-0.25-0.39-0.51-0.59-0.52c-0.44-0.02-0.29,0.27,0.17,0.52c0.72,0.39,1.32,0.94,1.88,1.13c0.56,0.19,0.4,0.45,1.02,0.7
			c-0.17-0.02-0.34-0.01-0.5,0.03c-0.24,0.08-0.46,0.39-0.29,0.64c0.08,0.12-0.44,0.15-0.49,0.14c-0.12-0.01-0.25-0.06-0.36-0.1
			c-0.26-0.08-0.51-0.18-0.76-0.31c-0.49-0.26-0.93-0.6-1.3-1.02c-0.38-0.42-0.8-0.98-0.84-1.56c-0.06-0.72,0.51-1.38,0.87-1.96
			c0.81-1.32,1.63-2.63,2.45-3.95c1.25,0.32,3.39,0.92,5.31,1.75c0.14,0.06,0.27,0.12,0.4,0.18
			C467.49,389.545,466.83,390.405,466.22,391.225z M463.21,356.015c-0.24,0.04-0.21-0.07,0-0.31c0,0,4.95-6.08,5.17-6.18
			C468.59,349.425,463.44,355.965,463.21,356.015z M460.05,354.405c-0.6,0.41-0.48,0.13-0.15-0.16c0,0,1.1-1.01,3.57-2.8
			c2.46-1.8,5.62-4.12,5.89-4.12C469.62,347.325,460.64,354.005,460.05,354.405z M480.56,400.475c-0.18,0.01-0.38-0.05-0.55-0.08
			c-0.86-0.13-1.73-0.04-2.54,0.28c-0.65,0.25-1.33,0.73-2.04,0.79c0.07-0.1,0.14-0.2,0.21-0.31c0.21-0.3-0.1-0.79-0.47-0.66
			c-0.24,0.08-0.48,0.13-0.72,0.15c0.09-0.06,0.17-0.13,0.26-0.19c0.2-0.15,0.64-0.35,1.32-0.35c0.69,0,1.46-0.37,1.87-0.78
			c0.42-0.42,0.85-0.24,0.91-0.45c0.07-0.21-0.41-0.08-1.05,0.14c-0.64,0.23-1.55,0.61-2.2,0.61c-0.59,0-1.12-0.14-1.22-0.17
			c-3.39-2.03-4.14-6.18-4.45-9.89c2.58,1.09,5.23,1.89,8.25,0.82c0.14,0.56,0.35,1.11,0.53,1.66c0.63,1.88,1.22,3.77,1.77,5.67
			c0.1,0.35,0.29,0.81,0.22,1.18c-0.06,0.34-0.44,0.49-0.46,0.86c-0.01,0.23,0.13,0.44,0.32,0.57
			C480.64,400.405,480.97,400.435,480.56,400.475z"/>
		<path style="fill:#2A2C2A;" d="M413.721,429.612c0,0,92.681-121.186,93.447-121.186c0.766,0,1.404,0.383,0.894,1.149
			c-0.511,0.766-92.043,119.563-92.681,120.037C414.742,430.086,412.786,430.834,413.721,429.612z"/>
		<path style="fill:#2A2C2A;" d="M454.377,377.591c-0.72,0.095-1.422,0.322-2.062,0.666c-0.154,0.083-0.307,0.174-0.422,0.305
			c-0.107,0.121-0.177,0.271-0.257,0.412c-0.337,0.599-0.872,1.085-1.5,1.363c-0.244,0.108-0.514,0.194-0.682,0.401
			c-0.377,0.463-0.015,1.143-0.033,1.74c-0.02,0.639-0.497,1.205-0.478,1.844c0.889-0.196,1.126-1.367,1.827-1.948
			c0.052-0.043,0.112-0.085,0.18-0.084c0.096,0.001,0.167,0.083,0.23,0.155c0.201,0.227,0.448,0.412,0.722,0.541
			c0.141,0.066,0.327,0.111,0.44,0.003c0.119-0.115,0.068-0.31,0.052-0.474c-0.06-0.594,0.435-1.091,0.926-1.431
			c0.491-0.34,1.056-0.667,1.262-1.228"/>
		<path style="fill:#FFFFFF;" d="M460.021,353.762c0,0,2.154,1.508,5.194,2.37c3.04,0.862,7.013,1.221,8.497,1.364
			c1.484,0.144,1.364-0.168,0.527-0.215c-0.838-0.048-4.715-0.383-8.856-1.436c-4.141-1.053-4.955-2.441-5.218-2.322
			C459.901,353.642,459.775,353.6,460.021,353.762z"/>
	</g>
	<g>
		<path style="opacity:0.21;fill:#2A2C2A;" d="M261.878,423.155c0,0,398.991-5.051,402.055-2.059
			c3.064,2.991-391.149,6.821-391.149,6.821"/>
		<path style="opacity:0.21;fill:#2A2C2A;" d="M149.559,476.427c0,0-41.2-0.511-42.732,1.787c-1.532,2.298,36,1.277,52.596,2.043
			c16.596,0.766,17.347,1.532,16.078,3.319c-1.269,1.787-35.315,1.021-36.037,1.532c-0.722,0.511-1.998,1.532,20.981,1.787
			c22.979,0.255,56.17,1.787,60.511,0c4.34-1.787,5.362-3.064-8.681-3.574c-14.043-0.511-26.835,0.295-29.12-1.257
			c-2.285-1.552,20.949-0.531,23.503-1.297c2.553-0.766-9.09-2.17-23.503-2.043c-14.412,0.128-21.178,0.638-21.306-0.128
			c-0.128-0.766,21.753-0.383,22.749-1.532C185.593,475.916,149.559,476.427,149.559,476.427z"/>
		<path style="opacity:0.21;fill:#2A2C2A;" d="M268.316,476.314c0,0-33.128,0.241-33.319,1.581c-0.191,1.34,3.064,2.298,18,1.532
			c14.936-0.766,24.511-0.16,26.425-1.42C281.338,476.746,279.608,476.151,268.316,476.314z"/>
		<path style="opacity:0.21;fill:#2A2C2A;" d="M726.641,485.848c0,0-178.085,0.535-183.83,2.106
			c-8.16,2.232,40.787,0.766,81.191,0.862c40.404,0.096,87.511-0.957,98.234-0.957C732.96,487.859,772.011,485.476,726.641,485.848z
			"/>
		<path style="opacity:0.21;fill:#2A2C2A;" d="M464.354,480.753c0,0,41.106-1.404,42.383,0c1.277,1.404-44.366,2.426-50.459,1.66
			C450.184,481.647,464.354,480.753,464.354,480.753z"/>
		<path style="opacity:0.21;fill:#2A2C2A;" d="M423.933,463.661c0,0-65.745-0.255-68.298,1.277
			c-2.553,1.532,73.173,1.104,74.553,1.149c1.27,0.041,2.452,1.118,0.287,1.692c-1.208,0.32-3.796,0.168-7.181,0.351
			c-9.447,0.511-35.745,0.383-36,1.66c-0.255,1.277,40.213-0.064,46.979,0.319c6.766,0.383,4.979,2.106-2.17,2.106
			c-7.149,0-24.894-0.489-22.085,1.351c2.809,1.84,51.462,0.558,53.585,0.468c1.312-0.056,8.358,0.063,8.457-0.83
			c0.096-0.862-6.406-0.544-9.351-0.67c-5.476-0.234-16.229-0.177-16.947-0.83c-1.404-1.277,17.359-0.603,17.872-1.787
			c0.287-0.662-0.203-1.079-3.686-1.213c-5.166-0.198-14.895,0.046-19.792-0.459c-3.108-0.32-3.475-0.563-3.458-1.265
			c0.05-1.998,44.936-1.277,46.851-2.681C485.465,462.895,423.933,463.661,423.933,463.661z"/>
		<path style="opacity:0.21;fill:#2A2C2A;" d="M371.146,484.597c0,0-63.191-0.957-63,1.149c0.191,2.106,64.915,3.638,71.809,1.532
			C386.848,485.172,371.146,484.597,371.146,484.597z"/>
		<path style="opacity:0.21;fill:#2A2C2A;" d="M711.423,452.213c0,0-55.404,0.11-52.596,1.553c2.809,1.443,60.558,0.042,61.532,0
			C729.55,453.367,726.217,452.126,711.423,452.213z"/>
		<path style="opacity:0.21;fill:#2A2C2A;" d="M576.622,468.894c0,0-55.404,0.11-52.596,1.553c2.808,1.443,60.558,0.042,61.532,0
			C594.75,470.048,591.416,468.807,576.622,468.894z"/>
		<path style="opacity:0.21;fill:#2A2C2A;" d="M621.04,478.47c0,0-14.649-0.383-15.032,0.766c-0.383,1.149,13.213,1.053,17.33,0.479
			C627.455,479.14,623.625,478.515,621.04,478.47z"/>
		<path style="opacity:0.21;fill:#2A2C2A;" d="M712.848,420.017c0,0-22.826-0.597-23.423,1.194
			c-0.597,1.79,20.589,1.641,27.004,0.746C722.844,421.062,716.877,420.088,712.848,420.017z"/>
		<path style="opacity:0.21;fill:#2A2C2A;" d="M523.923,430.277c0,0-97.436,0.703-97.181,2.746
			c0.255,2.043,36.671,1.277,36.671,1.277s4.056-1.187,3.959,0.141c-0.097,1.327-12.846,1.902-12.791,3.242
			c0.055,1.34,25.419,1.915,29.014,0c3.595-1.915-3.299-0.622-1.767-3.088c1.532-2.466,152.362-2.782,153.766-3.423
			C644.401,427.15,545.155,427.23,523.923,430.277z"/>
		<path style="opacity:0.21;fill:#2A2C2A;" d="M574.395,433.584c0,0-49.404,0.162-48.638,2.188
			c0.766,2.025,65.106,0.574,69.511-1.094C599.672,433.01,574.395,433.584,574.395,433.584z"/>
		<path style="opacity:0.21;fill:#2A2C2A;" d="M452.94,441.475c-0.568,0.069-1.267,0.255-1.374,0.817
			c1.042,0.462,2.216,0.498,3.356,0.523c4.733,0.102,9.467,0.132,14.201,0.088c-1.6,0.658-5.344,0.173-5.087,0.706
			c-0.029,0.728,0.678,1.395,1.403,1.323c-3.234,0.148-6.504,1.129-9.59,2.105c-1.16,0.367-0.946,1.646,0.258,1.821
			c4.579,0.665,9.302,0.444,13.954,0.34c1.402-0.031,2.843-0.045,4.154,0.453c-0.774,0.998-2.286,0.813-3.549,0.829
			c-1.975,0.025-3.93,0.817-5.365,2.174c-1.154,2.517,7.74,0.604,11.619,0.778c3.846,0.172,7.692,0.344,11.539,0.516
			c0.699,0.031,1.446,0.051,2.042-0.317c0.367-0.227,0.664-0.594,1.085-0.688c0.479-0.107,1.15,0.092,1.346-0.357
			c0.182-0.417-0.341-0.786-0.779-0.913c-1.291-0.375-2.651-0.416-3.995-0.454c-2.588-0.074-5.177-0.147-7.765-0.221
			c-5.778-1.827,21.666-1.38,21.651-3.086c0.118-0.479-0.483-0.795-0.966-0.894c-2.9-0.594-5.896-0.162-8.855-0.064
			c-4.314,0.142-8.616-0.435-12.895-1.011c4.29-1.053,8.713-1.563,13.13-1.514c1.59,0.018,3.292,0.078,4.634-0.775
			c-0.738-0.647-1.812-0.69-2.793-0.699l-14.464-0.137c-0.064-2.291,0.052,1.857-0.012-0.435c16.382-1.581-4.426-2.48-10.466-2.235
			C463.869,440.372,458.392,440.814,452.94,441.475z"/>
		<path style="opacity:0.21;fill:#2A2C2A;" d="M476.241,457.296c0.392,0.93,1.64,1.045,2.649,1.015
			c6.465-0.189,12.929-0.379,19.394-0.568c2.684-0.784-3.667-0.787-5.361-0.947c-1.682-0.159-3.277-0.527-4.99-0.598
			C484.01,456.036,475.636,455.81,476.241,457.296z"/>
		<path style="opacity:0.21;fill:#2A2C2A;" d="M504.983,443.471c14.253,0.081,28.507,0.161,42.76,0.242
			c0.316,1.253-1.507,1.818-2.799,1.794c-7.813-0.146-15.638,0.319-23.379,1.39c2.164,0.445,4.398,0.36,6.605,0.273l20.622-0.81
			c0.49-0.019,0.784,0.552,0.475,0.932c-0.521,0.641-1.553,0.997-2.436,1.155c-15.048,2.691-30.72-0.358-45.706,2.658
			c20.943,0.658,41.901,0.836,62.852,0.534c2.494-0.036,4.988-0.079,7.482-0.121c4.557-0.078,9.115-0.156,13.673-0.234
			c5.178-0.089,10.356-0.177,15.533-0.266c3.31-0.057,6.714-0.133,9.824-1.191c0.511-0.174,0.846-0.626,0.332-0.792
			c-1.875-0.604-5.981-0.431-7.973-0.438c-12.238-0.043-22.758-0.578-34.996-0.622c-4.255-1.807,18.628-0.087,30.177-1.548
			c0.622-0.079,0.376-0.497-0.229-0.664c-6.254-1.722-13.48,0.644-19.711-1.586c-1.076-0.943,6.2-0.777,12.388-0.752
			c1.564,0.006,2.022-1.305,0.466-1.466c-0.564-0.058-3.272-0.223-3.83-0.255c-12.747-0.738-23.726,1.029-36.467,0.195
			c4.369-2.757,10.51,0.529,15.155-1.733c-0.89,0.433-4.259-0.698-5.379-0.808c-1.956-0.192-3.922-0.273-5.887-0.246
			c-3.592,0.05-7.201,0.667-10.787,0.98c-8.273,0.722-16.547,1.443-24.82,2.165C514.28,442.66,509.632,443.066,504.983,443.471z"/>
		<path style="opacity:0.21;fill:#2A2C2A;" d="M80.753,484.836c0,0-21.303-0.191-22.573,1.108
			c-0.941,0.963,2.028,1.631,12.083,1.532c10.442-0.103,17.192,0.272,18.217-0.917C89.655,485.196,88.332,484.673,80.753,484.836z"
			/>
	</g>
	<g>
		<path style="fill:#2A2C2A;" d="M322.379,277.001c0.786-1.018,1.616-2.116,2.832-2.533c2.308-0.79,4.523,1.176,6.581,2.486
			c8.056,5.131,18.56,0.708,27.008-3.747c4.883-2.575,9.766-5.15,14.649-7.725c2.263-1.193,2.803-4.353,4.529-5.568
			c2.934-1.275,4.251,2.918,6.379,1.724c10.582-7.024,21.344-13.778,32.271-20.253c1.076-0.638,2.187-1.285,3.422-1.484
			c3.589-0.578,6.541,2.65,8.734,5.549c6.693,8.851,13.386,17.701,20.079,26.552c0.841,1.113,1.923,2.045,3.205,2.595
			c3.333,1.431,4.967-0.476,6.421-2.251l7.431-9.071c0.613-0.749,1.361-1.399,2.251-1.78c4.227-1.81,7.137,3.197,9.273,6.885
			c0.94,1.624,11.97,7.052,13.37,8.3c17.43,15.533,3.822,1.294,7.924-4.925c5.618-8.515,15.041-14.91,23.35-21.356
			c11.521-8.937,21.882-19.366,30.745-30.945c8.232,8.156,16.463,16.313,24.695,24.469c10.326,10.231,20.785,20.568,33.367,27.883
			c0.737,0.428,1.509,0.806,2.325,1.051c6.463,1.934,10.279-3.953,12.187-10.147c0.583-1.893,2.116-3.266,3.999-3.881
			c1.594-0.52,3.132-1.934,4.119-3.383c1.616-2.372,3.298-5.321,6.159-5.555c1.388-0.113,2.726,0.483,3.98,1.089
			c15.128,7.313,28.548,18.13,38.907,31.359c-8.836-6.534-17.672-13.069-26.508-19.603c-3.799-2.81-8.375-5.796-12.997-3.5
			c-2.25,1.118-3.799,3.276-4.445,5.704c-1.343,5.048,13.44,19.931,3.008,14.273c-8.334-7.171-10.064,0.603-13.237,4.68
			c-3.174,4.077-5.841,9.195-10.765,10.763c-3.517,1.12-7.3,0.093-10.952-0.443c-11.302-1.659-23.25,1.739-31.987,9.097
			c-2.627,0.859-3.821-3.799-1.807-5.692c2.014-1.892,5.083-2.001,7.594-3.155c3.576-1.643,5.753-5.247,8.535-8.031
			c2.781-2.784,7.325-4.816,10.539-2.545c-14.657-15.726-29.313-31.452-43.97-47.178c-1.191-1.277-2.7-2.67-4.419-2.361
			c-0.838,0.15-1.545,0.692-2.216,1.217c-2.074,1.624-4.148,3.248-6.222,4.872l-33.466,26.203c-0.957,0.75-1.825,1.622-2.474,2.65
			c-4.426,7.015,6.097,9.588,4.986,14.981l0,0c-4.161,2.069-4.798,4.163-1.154,7.047c2.432,1.924,4.622,5.233,6.527,8.657
			c1.56,2.802,12.999,11.95,4.085,7.942c-9.93-4.465-17.533-12.914-26.299-19.372c-3.807-2.804-15.658-12.302-20.185-13.185
			c-2.135-0.417,2.909,6.282,0.971,6.926c-1.387,0.461-2.309,1.907-2.007,3.336c0.589,2.785-3.191,6.393-6.654,5.967
			c-4.215-0.519-7.612-3.777-11.731-4.811c-3.296-0.826-6.771-0.164-10.158-0.431c-8.366-0.661-15.192-6.804-20.784-13.062
			c-3.61-4.04-7.112-8.358-11.82-11.039c-4.707-2.681-11.049-3.34-15.315-0.001c-2.028,1.588-3.407,3.916-5.527,5.379
			c-5.576,3.847-13.309,0.243-19.912,1.755c-8.011,1.834-14.965,7.951-21.913,10.705c-2.152,0.853,3.926,0.574-5.854,3.319
			c-2.206,0.619-4.036-2.195-6.203-2.94c-6.523-2.24-13.047,2.761-18.586,6.871c-6.393,4.743-15.395,10.88-23.703,13.232
			c-1.914,0.542-2.188-0.04-0.604-1.243c3.37-2.559,6.543-4.967,10.173-7.117C311.75,288.279,317.661,283.106,322.379,277.001z"/>
		<path style="opacity:0.21;fill:#2A2C2A;" d="M313.392,289.769c-2.539,1.806-5.079,3.611-7.618,5.417
			c-2.084,1.482-4.168,2.964-6.253,4.446c-0.985,0.701-2.035,1.491-2.36,2.655c0.757,0.473,1.689,0.657,2.569,0.506
			c1.703-3.905,6.602-4.928,10.58-6.453c6.291-2.412,11.463-7.141,17.69-9.712c0.496,0.504,0.992,1.008,1.488,1.512
			c-0.663,0.913-1.487,1.709-2.423,2.338c1.294,0.269,1.715,2.066,1.105,3.239c-0.61,1.172-1.84,1.86-2.977,2.534
			c-1.137,0.674-2.322,1.498-2.716,2.759c2.1,1.339,4.895-0.11,6.592-1.933c1.697-1.822,3.09-4.133,5.412-5.032
			c2.642-1.023,5.559,0.119,8.341,0.653c1.927,0.37,3.911,0.441,5.859,0.211c0.507-0.06,1.042-0.154,1.424-0.492
			c0.85-0.752,0.458-2.113,0.494-3.247c0.055-1.729,1.272-3.22,2.667-4.245c1.394-1.025,3.005-1.726,4.396-2.755
			c3.556-2.631,5.935-7.482,10.341-7.874c2.615-0.233,5.544,1.225,7.713-0.254c-0.949,1.653,3.629,2.289,3.048,4.104
			c-0.099,0.308-0.344,0.542-0.583,0.76c-3.195,2.925-6.69,5.523-10.412,7.74c-0.58,0.345-1.197,0.714-1.499,1.318
			c-0.685,1.372,0.868,3.029,2.4,2.963c1.532-0.066,2.784-1.24,3.681-2.483c0.757-1.049,1.392-2.219,2.396-3.034
			c0.772-0.627,1.713-1.001,2.638-1.366c2.254-0.89,4.508-1.78,6.762-2.671c1.142-0.451,2.295-0.908,3.303-1.607
			c1.211-0.84,2.162-1.992,3.163-3.072c4.416-4.764,10.101-8.34,16.307-10.257c-0.12,1.542-0.935,3.017-2.178,3.939
			c1.934,0.184,3.561-1.34,4.899-2.748c2.163-2.277,4.326-4.553,6.489-6.83c0.283-0.298,0.589-0.668,0.505-1.07
			c-0.085-0.408-0.524-0.625-0.915-0.771c-4.473-1.682-9.443-2.001-14.101-0.932c-8.476,1.945-15.564,8.245-24.154,9.603
			c-2.451,0.387-4.962,0.358-7.384,0.894c-5.35,1.184-9.691,4.964-14.58,7.437c-3.83,1.938-8.062,3.066-12.344,3.333
			c-3.967,0.248-7.863-1.014-11.784-0.703c-2.741,0.218-4.761,1.621-6.91,3.215C320.814,284.513,317.098,287.133,313.392,289.769z"
			/>
		<path style="opacity:0.21;fill:#2A2C2A;" d="M532.564,243.134c-1.53,1.69-2.98,3.461-4.661,5
			c-2.168,1.985-4.685,3.554-6.901,5.486c-3.442,3.001-6.109,6.832-9.684,9.673c-1.688,1.341-3.566,2.45-5.119,3.946
			c-1.553,1.495-2.79,3.507-2.708,5.662c0.153,4.021,4.731,7.379,3.588,11.238c-0.501,1.691-2.084,3.265-1.502,4.93
			c0.162,0.463,0.479,0.852,0.79,1.231c1.235,1.504,2.47,3.008,3.706,4.512c0.715,0.871,1.627,1.827,2.748,1.708
			c0.732-1.164,0.644-2.653,1.072-3.96c0.849-2.592,3.509-4.047,5.863-5.424c8.75-5.119,16.139-12.539,21.223-21.31
			c-2.192-0.801-3.922,1.838-5.781,3.249c-1.816,1.379-4.246,1.656-6.205,2.823c-3.031,1.804-4.867,5.664-8.342,6.273
			c0.036-7.368,4.793-14.499,11.581-17.363c-3.51,0.448-6.682,2.247-9.75,4.011c-0.063-1.025,0.702-1.898,1.449-2.602
			c6.217-5.857,14.611-8.938,20.989-14.619c3.424-3.05,14.257-12.301,5.752-15.376C543.856,229.757,536.553,238.726,532.564,243.134
			z"/>
		<path style="opacity:0.21;fill:#2A2C2A;" d="M438.982,303.417c-9.233,6.339-19.609,10.784-29.908,15.186
			c-2.917,1.247-5.835,2.494-8.752,3.742c7.766,3.204,16.212-1.794,23.609-5.776c5.665-3.05,11.6-5.595,17.714-7.597
			c3.196-1.046,6.596-1.952,9.89-1.269c4.711,0.977,8.739,5.103,13.516,4.537c1.776-0.211,3.41-1.07,5.156-1.454
			c4.855-1.068,9.633,1.595,14.21,3.535c8.11,3.437,16.181,10.651,24.894,11.943c5.914,1.076-2.673-1.846-4.189-2.453
			c-12.534-5.018-24.481-16.775-37.469-20.501c-3.057-0.877-3.257-5.76-7.338-6.244C453.797,296.292,443.18,300.535,438.982,303.417
			z"/>
		<path style="opacity:0.21;fill:#2A2C2A;" d="M612.177,325.583c1.736,1.004,3.654,1.645,5.494,2.442
			c2.384,1.032,4.656,2.338,6.685,3.959c0.914,0.73,2.503,1.406,3.004,0.349c0.279-0.588-0.145-1.315-0.73-1.599
			c-0.585-0.285-1.268-0.247-1.917-0.203c-0.043-0.89-0.577-1.741-1.361-2.166c0.878-1.41-0.038-3.379-1.475-4.212
			c-1.437-0.832-3.19-0.838-4.85-0.811c-1.372,0.022-3.221-0.382-3.232-1.754c-0.007-0.883,0.838-1.52,1.158-2.343
			c0.466-1.199-0.266-2.542-1.19-3.436c-0.924-0.895-2.074-1.579-2.79-2.647c-0.732-1.091-1.12-2.65-2.388-2.991
			c-0.495-0.133-1.019-0.032-1.52,0.073c-2.221,0.469-4.42,1.042-6.588,1.715c-1.438,0.447-3.03,0.931-4.401,0.307
			c-0.538-0.245-0.989-0.642-1.467-0.99c-1.346-0.98-2.962-1.586-4.621-1.733c-0.256-0.023-0.524-0.033-0.762,0.064
			c-0.727,0.297-0.711,1.426-0.164,1.99c0.547,0.564,1.373,0.725,2.135,0.912C599.487,314.533,605.11,321.495,612.177,325.583z"/>
		<path style="opacity:0.21;fill:#2A2C2A;" d="M623.05,215.586c4.432-6.418,22.706-24.601,28.487-29.838
			c5.78-5.236-0.197,2.751,7.027,5.691c1.905,0.775,3.895,1.985,6.045-0.746c0.554-0.703,0.893-1.548,1.108-2.417
			c1.397-5.665,5.07-9.727,9.46-13.327c2.768-2.27-2.303,8.704,0.645,6.514c4.017-2.983,15.963-19.218,18.604-23.306
			c2.906-4.499,4.191-9.837,6.54-14.65c2.349-4.813,8.647-5.595,11.682-10.008c1.645-2.392,0.369,4.246,3.245,3.341
			c2.5-2.348,9.635-4.265,7.501-7.044c-1.713-2.683-6.908-1.556-6.994-4.721c-0.112-4.086,5.365-12.518,7.24-16.176
			c2.74-5.346,6.917-9.755,11.287-13.921c1.176-1.121,3.12-0.249,3.084,1.375c-0.066,2.945-0.84,5.753-3.332,7.035
			c-1.386,0.713-3.068,0.763-4.363,1.63c-2.243,1.502-2.402,4.694-2.21,7.387c0.578,8.074,2.21,16.072,4.841,23.727
			c2.671,4.919-2.705,11.865-8.137,10.512c-3.217-0.801-6.301-3.779-9.343-2.46c-1.466,0.636-2.352,2.114-3.141,3.503
			c-7.765,13.662-15.53,27.324-23.295,40.986c-1.516,6.389,8.313-8.534,10.331-4.511c0.363,0.724,0.167,1.606-0.411,2.173
			c-5.451,5.35-10.086,11.53-13.699,18.258c-1.464,2.728-4.802,3.733-7.557,2.321c-6.734-3.451-15.005-3.941-22.011-1.023
			c-1.851,0.771-3.658,1.796-4.91,3.362c-2.428,3.039-1.23,10.62-4.027,10.874c-4.454,0.405,2.561-11.577-5.029-9.488
			c-1.929,0.531-10.053,16.213-19.822,21.169c-6.656,3.377-11.545,9.295-17.172,14.198c-3.57,3.111-8.081,5.773-12.643,6.529
			c-1.95,0.323-2.976-2.235-1.403-3.433C603.611,239.252,612.932,228.719,623.05,215.586z"/>
		<path style="fill:#2A2C2A;" d="M684.105,156.813c1.222-1.265,2.511-2.573,4.175-3.141c0.914-0.312,1.911-0.388,2.767-0.835
			c1.201-0.628,1.928-1.874,2.581-3.061c3.642-6.619,7.063-13.507,12.31-18.943c3.089-3.2,6.777-5.858,9.365-9.475
			c3.526-4.929,5.335-11.859,11.001-14.007c-4.5,9.643-10.636,18.521-18.067,26.139c-1.164,1.193-2.356,3.22-1.074,4.285
			c0.351,0.292,0.825,0.413,1.156,0.727c0.966,0.915,0.1,2.505-0.773,3.509c-6.692,7.699-13.384,15.399-20.076,23.098
			c2.556,1.908,1.254,6.213-1.286,8.143c-2.539,1.93-5.858,2.58-8.458,4.427c-3.01,2.138-4.789,5.681-7.795,7.825
			c-3.596,2.565-8.385,2.753-12.287,4.824c-3.388,1.798-5.869,4.877-8.539,7.632c-4.233,4.369-9.147,8.077-14.509,10.95
			c-1.703-0.773-1.492-3.444-0.174-4.77c1.319-1.326,3.238-1.808,4.892-2.68c3.533-1.864,5.75-5.44,8.16-8.627
			c2.487-3.289,5.396-4.475,8.49-6.867c2.929-2.264,5.391-5.612,7.964-8.275C670.655,170.731,677.38,163.772,684.105,156.813z"/>
		<path style="opacity:0.21;fill:#2A2C2A;" d="M613.837,292.006c-2.19,2.504-4.476,4.925-6.851,7.255
			c0.695,1.33,2.634,1.496,3.971,0.816c1.338-0.679,2.268-1.932,3.317-3.005c1.049-1.073,2.424-2.045,3.915-1.882
			c0.428,1.716,1.343,3.581,3.059,4.007c1.404,0.349,2.889-0.442,3.799-1.566c0.911-1.124,1.374-2.534,1.859-3.897
			c0.532-1.492,1.143-3.017,2.277-4.122c1.134-1.106,2.93-1.685,4.345-0.972c0.962,0.484,1.571,1.444,2.247,2.283
			c2.011,2.492,4.881,4.111,7.678,5.67c4.403,2.454,8.807,4.908,13.21,7.362c0.562-1.56-0.216-3.342-1.431-4.47
			c-1.215-1.128-2.796-1.756-4.312-2.427c-7.17-3.175-13.674-7.846-18.974-13.625c2.31-0.455,4.776-0.065,6.833,1.079
			c0.367-1.441,0.153-3.021-0.584-4.313c3.533-0.533,5.943,4.147,9.51,4.357c1.29,0.076,2.527-0.458,3.785-0.755
			c2.849-0.673,5.973-0.08,8.377,1.591c-1.331-3.715-4.891-6.131-8.423-7.891c-3.532-1.76-7.353-3.197-10.136-5.994
			c-1.203-1.209-2.358-2.745-4.053-2.94c-2.122-0.244-3.753,1.702-5.268,3.207c-5.169,5.135-13.655,7.314-16.25,14.123"/>
	</g>
	<g>
		<path style="fill:#2A2C2A;" d="M729.209,445.771c-10.415-22.275-24.655-44.177-46.414-55.632
			c19.958,23.886,36.36,50.737,48.501,79.397c-2.83-11.472-13.792-18.743-23.889-24.88c-16.885-10.263-34.334-20.739-53.856-23.786
			c16.178,6.852,32.183,14.554,45.995,25.412c13.812,10.858,25.406,25.159,30.52,41.968c-6.473-8.177-15.998-13.879-26.263-15.721
			c5.882,4.483,11.956,9.191,15.314,15.78c-15.727-34.233-49.083-59.773-86.232-66.029c10.228,7.27,21.193,13.431,32.161,19.528
			c7.904,4.393,15.887,8.806,22.728,14.72c6.841,5.914,12.546,13.528,14.593,22.336c-11.403-11.237-27.905-15.253-43.614-18.335
			c-19.039-3.736-39.734-6.577-57.06,2.155c-5.347,2.695-10.117,6.388-14.849,10.057c13.024-6.215,26.83-10.787,40.988-13.576
			c10.36-2.04,21.185-3.109,31.4-0.438c17.366,4.541,30.115,18.924,41.755,32.588c-12.862-4.787-26.682-6.985-40.394-6.425
			c15.568,4.316,31.137,8.632,46.705,12.948c-0.573-3.057-1.674-6.015-3.238-8.704c4.854,3.019,9.955,6.123,15.654,6.56
			c4.073,0.312,8.3-0.759,12.187,0.497c1.503,0.486,3.417,1.206,4.434-0.003c0.531-0.631,0.529-1.542,0.465-2.364
			c-0.548-7.038-3.72-13.841-8.759-18.784c4.294,4.212,8.326,4.944,11.091,11.378c1.431,3.329,5.822,13.49,6.704,4.134
			c0.584-6.187-5.139-16.621-7.29-22.438C735.745,460.542,732.629,453.085,729.209,445.771z"/>
		<path style="opacity:0.21;fill:#2A2C2A;" d="M730.992,408.761c-1.549-5.236-3.114-10.513-5.673-15.336
			c-2.388-4.5-5.591-8.51-8.877-12.403c-10.365-12.279-21.753-23.694-34.009-34.087c16.432,12.944,32.345,27.026,43.889,44.47
			c11.544,17.444,18.436,38.722,15.306,59.404c-10.535-21.036-22.166-41.524-34.832-61.35c-0.737,5.908,2.504,11.516,5.765,16.498
			c9.303,14.214,17.624,28.673,26.24,43.171c2.952-4.442-0.444-13.068-1.582-17.849C735.416,423.7,733.201,416.227,730.992,408.761z
			"/>
		<path style="opacity:0.21;fill:#2A2C2A;" d="M645.848,468.229c-10.545-1.479-21.565-2.917-31.623,0.579
			c7.447-0.335,14.893-0.671,22.34-1.006c8.475-0.382,17.018-0.76,25.4,0.554c8.381,1.313,16.695,4.453,22.864,10.277
			c0.947,0.894,1.642,2.802,0.396,3.18c-0.502,0.152-1.025-0.119-1.479-0.38c-5.978-3.442-11.751-7.203-18.365-9.318
			C659.126,470.116,652.378,468.882,645.848,468.229z"/>
	</g>
	<g>
		<path style="fill:#BA3139;" d="M614.71,109.075c-6.56,13.86-21.12,18.46-35.8,17.31c-9.34-0.73-18-3.77-23.35-9.45
			c7.12-0.24,21.374-0.253,21.26-2.07c-0.59-1.13-2.16-1.17-3.42-1.09c-4.99,0.31-9.99,0.2-14.96-0.33
			c-1.11-0.12-2.61-0.87-2.14-1.9c-1.786-1.399,11.405-1.216,25.09-0.98c1.171,0.02,7.225-0.713,5.374-1.606
			c-0.766-0.957-11.894-0.094-16.244-0.894c-1.437-2.362,14.27-1.53,21.48-1.55c1.59,0,3.55-0.29,4.09-1.78
			c0.12-2.095-20.26-0.4-30.36,0.44c-4.74,0.39-9.81,0.88-13.98-1.4c-2.965-0.944,11.524-0.88,11.59-2.31
			c0.126-1.57-20.683,1.238-21.066-0.868c-0.894-2.681,10.726-3.602,13.866-3.852c10.43-0.85,20.86-1.69,31.28-2.54
			c1.49-0.12,3.24-0.41,3.89-1.75c1.581-2.39-23.94,0.88-35.92,1.32c-0.9,0.04-1.85,0.06-2.66-0.35c-0.81-0.4-1.41-1.39-1.06-2.23
			c0.37-0.87,1.48-1.11,2.42-1.22c7.14-0.89,25.844-0.484,22.78-1.633c0.702-1.34-18.78-0.427-27.48-0.137
			c-0.68-1.02,0.91-2.01,2.12-2.21c9.88-1.64,19.87-2.65,29.88-3.02c3.21-0.11,11.565-0.442,9.52-1.27
			c-14.31-1.78-28.76,1.73-43.15,2.2c0.13-0.45,0.27-0.89,0.42-1.34c2.96-8.66,12.6-19.5,29.61-20.61
			c10.1-0.65,20.86,0.76,28.47,7.43C619.89,81.325,619.49,98.995,614.71,109.075z"/>
		<path style="opacity:0.05;fill:#2A2C2A;" d="M309.427,111.305c13.799-8.81,25.232,5.496,41.485,7.458
			c16.596,2.004,25.572,6.816,31.079,19.86c1.344,3.182,2.764,6.607,5.673,8.47c3.606,2.31,8.271,1.499,12.54,1.169
			c12.17-0.941,24.648,2.954,34.121,10.651c2.106,1.712,4.187,3.664,6.826,4.298c4.246,1.019,8.378-1.632,12.396-3.341
			c15.488-6.588,33.449-4.826,40.647,18.854c-5.461-11.625-19.262-27.892-38.857-15.828c-4.486,2.761-6.818,11.63-10.756,8.132
			c-14.521-12.898-34.279-14.186-46.436-13.239c-3.897,0.304,5.106,12.102,6.638,23.912c0.494,3.806-13.754-21.716-16.694-24.182
			c-9.146-7.671-16.268-17.425-24.419-26.146c-8.15-8.722-13.338-10.131-25.015-12.609c-11.677-2.478-30.056-4.501-35.122,6.308
			c-1.201,2.563-1.945,5.461-3.969,7.439c-3.248,3.174-8.399,2.812-12.889,3.493c-15.189,2.305-24.442,17.484-31.582,31.085
			c10.205-2.139,16.73-18.49,23.351-25.986C287.881,130.42,297.293,119.052,309.427,111.305z"/>
		<path style="opacity:0.1;fill:#2A2C2A;" d="M436.297,120.16c13.471-3.573,27.75-4.068,41.436-1.435
			c4.331,0.833,9.053,1.924,12.957-0.128c3.743-1.968,6.377-6.653,10.601-6.44c1.759,0.089,3.501,1.082,5.197,0.609
			c1.486-0.415,2.437-1.824,3.257-3.131c3.237-5.16,6.474-10.32,9.711-15.48c2.336-3.724,4.738-7.523,8.178-10.261
			s8.174-4.26,12.315-2.785c-1.091,2.274-3.681,3.309-5.909,4.491c-11.816,6.269-16.879,20.237-20.954,32.976
			c-2.457-1.293-4.914-2.587-7.372-3.88c-6.084,4.264-11.116,10.018-14.531,16.615c-17.768-10.477-40.618-11.808-59.482-3.464
			c-1.831,0.81-3.66,1.715-5.643,1.995c-4.757,0.672-9.788-2.452-13.893,0.768C414.637,134.118,430.565,121.681,436.297,120.16z"/>
		<path style="opacity:0.04;fill:#2A2C2A;" d="M677.069,94.935c5.104,4.538,9.108,10.156,13.067,15.721
			c1.621,2.279,3.242,4.559,4.863,6.838c-1.465-6.237-9.035-8.308-14.407-11.798c-4.844-3.147-8.383-8.079-13.423-10.902
			c-5.553-3.109-12.216-3.286-18.579-3.386c-8.328-0.131-16.656-0.261-24.984-0.392C635.404,75.855,665.174,84.358,677.069,94.935z"
			/>
		<path style="opacity:0.05;fill:#2A2C2A;" d="M314.902,42.049c15.318,2.178,29.413,10.917,38.973,23.082
			c3.045,3.874,6.349,8.494,11.266,8.823c2.282,0.153,4.493-0.694,6.682-1.356c19.813-5.989,43.255,4.71,51.711,23.602
			c1.581-2.026-0.201-4.886-1.918-6.798c-6.363-7.087-12.857-14.283-21.028-19.177c-8.171-4.894-18.424-7.225-27.341-3.879
			c-2.975,1.116-6.008,2.863-9.117,2.207c-3.433-0.725-5.543-4.061-7.538-6.947c-15.609-22.582-48.137-31.559-73.118-20.18
			c-8.459,3.853-16.451,10.441-18.535,19.498c-8.229-0.311-16.718,0.142-24.224,3.528c-7.506,3.387-13.887,10.223-14.763,18.411
			c12.583-14.56,35.103-19.455,52.595-11.431c10.609-5.192,25.032,0.06,29.819,10.858c1.212-4.978-3.437-9.391-7.94-11.835
			c-8.678-4.711-38.607-3.674-28.531-16.048C280.768,43.508,302.068,40.224,314.902,42.049z"/>
		<path style="opacity:0.1;fill:#2A2C2A;" d="M195.656,193.429c6.1-1.452,10.151-7.052,15.24-10.715
			c6.075-4.372,13.742-5.977,21.219-6.3c24.687-1.067,50.272,12.493,60.378,35.043c2.274-8.383,11.387-14.293,19.968-12.951
			c-8.597,1.732-15.662,9.379-16.709,18.086c-12.312-4.952-17.327-20.068-28.464-27.284c-11.647-7.547-28.357-4.228-37.956,5.795
			c1.869-7.232,9.579-12.444,16.987-11.483c-7.451-1.433-15.018-2.873-22.577-2.215c-7.559,0.658-15.244,3.699-19.858,9.723"/>
		<path style="opacity:0.1;fill:#2A2C2A;" d="M51.821,48.467c10.488-6.262,23.075-7.662,35.225-8.923
			c18.473-1.916,38.745-3.402,53.999,7.191c5.384,3.739,9.994,9.274,10.66,15.795c-2.684-6.369-8.975-10.468-15.342-13.158
			c-8.73-3.688-18.14-5.444-27.502-6.922c-11.942-1.885-25.015-3.154-35.358,3.108c-2.425,1.468-4.615,3.312-7.1,4.676
			C55.88,56.01,34.678,54.891,30.321,68.9C37.547,61.97,42.99,53.74,51.821,48.467z"/>
	</g>
</g>
</svg>
