<?xml version="1.0" encoding="utf-8"?>
<!-- Generator: Adobe Illustrator 28.0.0, SVG Export Plug-In . SVG Version: 6.00 Build 0)  -->
<svg version="1.1" id="Layer_1" xmlns="http://www.w3.org/2000/svg" xmlns:xlink="http://www.w3.org/1999/xlink" x="0px" y="0px"
	 viewBox="0 0 311.81 311.81" style="enable-background:new 0 0 311.81 311.81;" xml:space="preserve">
<style type="text/css">
	.st0{fill:#8ED5DE;stroke:#231F20;stroke-width:2;stroke-miterlimit:10;}
	.st1{fill:#E3E4DB;stroke:#231F20;stroke-width:2;stroke-miterlimit:10;}
	.st2{fill:#EFEBE9;stroke:#231F20;stroke-width:2;stroke-miterlimit:10;}
	.st3{fill:none;stroke:#231F20;stroke-width:2;stroke-miterlimit:10;}
	.st4{fill:#655BA7;stroke:#231F20;stroke-width:2;stroke-miterlimit:10;}
	.st5{fill:#8ED5DE;stroke:#8ED5DE;stroke-width:2;stroke-miterlimit:10;}
	.st6{fill:#6FBE44;stroke:#231F20;stroke-width:2;stroke-miterlimit:10;}
	.st7{fill:#EF3C4D;stroke:#231F20;stroke-width:2;stroke-miterlimit:10;}
	.st8{fill:#F8EC24;stroke:#231F20;stroke-width:2;stroke-miterlimit:10;}
	.st9{fill:#7FBB46;stroke:#231F20;stroke-width:2;stroke-miterlimit:10;}
	.st10{fill:#2B2C2B;stroke:#231F20;stroke-width:2;stroke-miterlimit:10;}
	.st11{fill:#BB3169;stroke:#231F20;stroke-width:2;stroke-miterlimit:10;}
	.st12{fill:#231F20;stroke:#231F20;stroke-width:2;stroke-miterlimit:10;}
</style>
<g>
	<path class="st0" d="M156.05,282.67c0.21,0.11,0.4,0.25,0.59,0.4l109.83-63.51l-0.56-125.82c-0.4-0.23-0.72-0.52-1.01-0.86
		l-108.83,62.84c0.38,41.8,0.38,84.22,0.01,125.98C156.05,282.02,156.05,282.35,156.05,282.67z"/>
	<path class="st1" d="M265.54,91.26l-109.46-63.2L46.3,91.43c-0.03,0.2-0.07,0.39-0.13,0.59c0.01,0.09,0.03,0.18,0.04,0.27
		l109.86,63.44l109.83-63.42C265.75,91.97,265.62,91.62,265.54,91.26z"/>
	<path class="st2" d="M46.54,92.48c-0.17,0.25-0.36,0.48-0.57,0.7c-0.15,0.12-0.3,0.23-0.45,0.35v126.04l109.73,63.36
		c0.27-0.15,0.55-0.28,0.83-0.37V155.73L46.54,92.48z"/>
	<path class="st3" d="M259.27,104.66"/>
	<polygon class="st4" points="259.27,155.73 259.27,104.66 163.45,159.98 163.45,211.06 	"/>
	<polygon class="st4" points="163.45,219.57 163.45,270.64 259.27,215.31 259.27,164.24 	"/>
	<path class="st3" d="M237.15,125.94"/>
	<line class="st5" x1="170.82" y1="172.75" x2="192.93" y2="159.98"/>
	<path class="st3" d="M170.82,181.26"/>
	<line class="st5" x1="192.93" y1="168.5" x2="170.82" y2="181.26"/>
	<line class="st5" x1="170.82" y1="189.78" x2="192.93" y2="177.01"/>
	<line class="st5" x1="170.82" y1="232.33" x2="192.93" y2="219.57"/>
	<line class="st5" x1="170.82" y1="240.85" x2="192.93" y2="228.08"/>
	<line class="st5" x1="170.82" y1="249.36" x2="192.93" y2="236.59"/>
	<circle class="st6" cx="244.53" cy="138.71" r="3.62"/>
	<circle class="st7" cx="229.78" cy="147.22" r="3.62"/>
	<circle class="st6" cx="244.53" cy="198.19" r="3.62"/>
	<circle class="st8" cx="229.78" cy="206.7" r="3.62"/>
	<polygon class="st9" points="52.89,104.66 148.71,159.98 148.71,211.06 52.89,155.73 	"/>
	<polygon class="st10" points="52.89,181.26 52.89,198.29 67.63,206.8 67.63,223.82 82.37,232.33 82.37,215.31 97.11,223.82 
		97.11,206.8 82.37,198.29 82.37,181.26 67.63,172.75 67.63,189.78 	"/>
	<circle class="st11" cx="133.96" cy="245.1" r="10.63"/>
	<circle class="st11" cx="119.22" cy="219.57" r="10.63"/>
	<g>
		<path class="st12" d="M117.56,111.81l-7.34-5.02l13.93-31.03l1.91-0.05l12.46,8.53l19.62-14.45l-17.94-12.27L91.08,93.69
			l-6.98-4.78l53.32-39.27l26.33,18.01c1.64,1.12,2.63,2.3,2.96,3.53c0.33,1.23-0.06,2.25-1.17,3.07l-20.24,14.91
			c-2.57,1.89-6.4,1.09-11.49-2.39c-0.5-0.34-1.22-0.86-2.16-1.55c-0.94-0.69-1.62-1.18-2.06-1.48
			C125.63,93.09,121.61,102.45,117.56,111.81z"/>
		<path class="st12" d="M212.99,102.73l-31.11,9.35c-3.36,0.76-8.56,2.33-15.57,4.69l-20.65,15.21l-6.98-4.78l20.65-15.21
			c1.26-1.59,2.35-3.42,3.29-5.49c1.66-3.51,2.57-5.42,2.74-5.73l12.02-22.42c0.02-0.02,0.12-0.09,0.31-0.23l7.09,4.85l-15.87,27.04
			l37.38-12.33l7.04,4.81C213.14,102.62,213.03,102.69,212.99,102.73z"/>
	</g>
</g>
</svg>
