<?xml version="1.0" encoding="UTF-8"?>
<svg id="Layer_2" data-name="Layer 2" xmlns="http://www.w3.org/2000/svg" xmlns:xlink="http://www.w3.org/1999/xlink" viewBox="0 0 222.96 257.38">
  <defs>
    <style>
      .cls-1 {
        fill: #bb3168;
      }

      .cls-1, .cls-2, .cls-3, .cls-4, .cls-5, .cls-6, .cls-7, .cls-8, .cls-9, .cls-10 {
        stroke-miterlimit: 10;
      }

      .cls-1, .cls-2, .cls-3, .cls-4, .cls-5, .cls-6, .cls-7, .cls-8, .cls-10 {
        stroke-width: 2px;
      }

      .cls-1, .cls-2, .cls-3, .cls-4, .cls-5, .cls-6, .cls-8, .cls-10 {
        stroke: #231f20;
      }

      .cls-2 {
        fill: #7dba47;
      }

      .cls-3 {
        fill: #fbef17;
      }

      .cls-4 {
        fill: url(#linear-gradient);
      }

      .cls-5 {
        fill: #2b2b2b;
      }

      .cls-6, .cls-7 {
        fill: #75f4f4;
      }

      .cls-7 {
        stroke: #75f4f4;
      }

      .cls-8 {
        fill: #6556bf;
      }

      .cls-9 {
        fill: #231f20;
        stroke: #fff;
      }

      .cls-10 {
        fill: #efecea;
      }
    </style>
    <linearGradient id="linear-gradient" x1="1.66" y1="64.99" x2="221.39" y2="64.99" gradientUnits="userSpaceOnUse">
      <stop offset="0" stop-color="#fff"/>
      <stop offset="1" stop-color="#75f4f4"/>
    </linearGradient>
  </defs>
  <g id="design">
    <g>
      <path class="cls-6" d="m111.54,255.78c.21.11.4.25.59.4l109.83-63.51-.56-125.82c-.4-.23-.72-.52-1.01-.86l-108.83,62.84c.38,41.8.38,84.22.01,125.98-.04.31-.04.64-.04.96Z"/>
      <path class="cls-4" d="m221.02,64.36L111.56,1.15,1.79,64.54c-.03.2-.07.39-.13.59.01.09.03.18.04.27l109.86,63.44,109.83-63.42c-.16-.34-.29-.69-.37-1.06Z"/>
      <path class="cls-10" d="m2.02,65.58c-.17.25-.36.48-.57.7-.15.12-.3.23-.45.35v126.04l109.73,63.36c.27-.15.55-.28.83-.37v-126.83L2.02,65.58Z"/>
      <polygon class="cls-8" points="214.75 128.83 214.75 77.76 118.93 133.09 118.93 184.16 214.75 128.83"/>
      <polygon class="cls-8" points="118.93 192.67 118.93 243.74 214.75 188.41 214.75 137.34 118.93 192.67"/>
      <line class="cls-7" x1="126.3" y1="145.85" x2="148.42" y2="133.09"/>
      <line class="cls-7" x1="148.42" y1="141.6" x2="126.3" y2="154.37"/>
      <line class="cls-7" x1="126.3" y1="162.88" x2="148.42" y2="150.11"/>
      <line class="cls-7" x1="126.3" y1="205.44" x2="148.42" y2="192.67"/>
      <line class="cls-7" x1="126.3" y1="213.95" x2="148.42" y2="201.18"/>
      <line class="cls-7" x1="126.3" y1="222.46" x2="148.42" y2="209.69"/>
      <circle class="cls-2" cx="200.01" cy="111.81" r="3.62"/>
      <circle class="cls-1" cx="185.27" cy="120.32" r="3.62"/>
      <circle class="cls-2" cx="200.01" cy="171.29" r="3.62"/>
      <circle class="cls-3" cx="185.27" cy="179.8" r="3.62"/>
      <polygon class="cls-2" points="8.37 77.76 104.19 133.09 104.19 184.16 8.37 128.83 8.37 77.76"/>
      <polygon class="cls-5" points="8.37 154.37 8.37 171.39 23.11 179.9 23.11 196.93 37.85 205.44 37.85 188.41 52.6 196.93 52.6 179.9 37.85 171.39 37.85 154.37 23.11 145.85 23.11 162.88 8.37 154.37"/>
      <circle class="cls-1" cx="89.45" cy="218.2" r="10.63"/>
      <circle class="cls-1" cx="74.71" cy="192.67" r="10.63"/>
      <g>
        <g>
          <path class="cls-9" d="m69.78,40.63c-.54-1.36.64-2.99.71-3.09,1.52-2.05,5.01-2.29,6.59-.95.28.24.66.95,1.43,2.38.61,1.14.66,1.24.91,1.85.17.41-.06,1.32.5,1.9.03.59,2.06-.57,2.34-.75.81-.52.73-.04,1.09-.3.9-.65,1.36-1.07,1.9-1.51,1.2-.98,2.85-.49,4.68-.32,2.23.21,1.59-.32,7.06-.79,4.76-.41,7.25-.17,7.86-1.51.2-.43.35-1.36,1.19-1.9.3-.19.59-.28.79-.32.45-1.09,1.17-2.64,2.3-4.36.98-1.5,1.84-2.48,3.41-4.29,2.16-2.47,4.13-4.44,4.13-4.44,2.03-2.03,2.26-2.05,2.78-2.94.94-1.6.81-2.59,1.98-3.57.3-.25,1.43-1.19,2.54-.79.82.3,1.47,1.27,1.27,1.9-.18.6-.98.53-1.19,1.19-.19.62.43.97.24,1.59-.11.35-.57.61-1.51,1.11,0,0-.59.32-1.98.95-.55,1.21-1.08,2.48-1.59,3.81-.19.51-.38,1.01-.56,1.51,1.27,1.16,2.54,2.33,3.81,3.49-1.09,1.6-2.05,2.91-2.78,3.89-1.51,2.02-2.06,2.61-2.38,2.94-1.26,1.3-1.6,1.29-2.3,2.14-1.18,1.43-1.09,2.47-1.75,4.13-1.23,3.09-2.83,2.71-4.44,5.71-.85,1.59-1.08,3.3-1.51,6.67-.38,3.03-.36,4.71-.48,7.3-.28,6.15-.82,5.65-1.27,12.7-.27,4.18-.17,5.77-.71,9.52-.32,2.2-.69,3.99-.95,5.16-1.72-.03-3.44-.05-5.16-.08-1.52,2.2-1.6,3.69-1.35,4.68.2.81.62,1.24.4,1.75-.39.88-2.24.85-4.13.79-3.48-.09-3.97-.88-6.9-.71-.53.03-1.14.09-1.19-.08-.1-.33,1.86-1.34,3.73-1.98,2.07-.72,2.52-.47,3.57-1.19,1.36-.94,2.33-2.55,1.98-3.02-.17-.23-.63-.17-1.03-.08,1.35-2.18,1.69-3.93,1.75-5.16.04-.95-.08-1.93.24-3.49.24-1.19.56-2.3.56-2.3.17-.6.26-.86.4-1.43,0,0,.2-.87.32-1.83.2-1.7-.02-3.79-.08-4.76-.03-.39.14-2.19.48-5.79.26-2.76.43-4.44-.56-6.11-.23-.39-.47-.68-.63-.87-.18.63-.54,1.52-1.35,2.14-1.34,1.04-3.11.74-4.29.56-2.6-.41-5.64-.82-9.6-1.27.08.18.66,1.58-.08,2.86-.94,1.62-3.11,1.44-3.25,1.43-.9-.09-1.68-.72-3.25-1.98-1.38-1.11-1.48-1.49-1.51-1.67-.18-1.03.88-1.49.79-2.7-.07-1-.82-1-1.03-1.98-.13-.64.08-1.11,1.9-4.44.76-1.4,1.21-2.2.87-2.86-.24-.48-.73-.55-.79-1.03-.09-.67.8-.92.79-1.59,0-.77-1.22-1.47-2.06-1.75-1.21-.4-1.91-.03-2.3-.56-.31-.41.05-.75-.16-1.59-.24-.99-.88-1.13-1.19-1.9Z"/>
          <path class="cls-9" d="m95.42,44.92l3.13.28c-.02.19-.11.62-.44.99-.34.39-.76.51-1.07.6-.48.14-1.08.3-1.47,0-.42-.32-.5-1.1-.16-1.86Z"/>
        </g>
        <g>
          <path class="cls-9" d="m153.34,44.25c.54-1.36-.64-2.99-.71-3.09-1.52-2.05-5.01-2.29-6.59-.95-.28.24-.66.95-1.43,2.38-.61,1.14-.66,1.24-.91,1.85-.17.41.06,1.32-.5,1.9-.03.59-2.06-.57-2.34-.75-.81-.52-.73-.04-1.09-.3-.9-.65-1.36-1.07-1.9-1.51-1.2-.98-2.85-.49-4.68-.32-2.23.21-1.59-.32-7.06-.79-4.76-.41-7.25-.17-7.86-1.51-.2-.43-.35-1.36-1.19-1.9-.3-.19-.59-.28-.79-.32-.45-1.09-1.17-2.64-2.3-4.36-.98-1.5-1.84-2.48-3.41-4.29-2.16-2.47-4.13-4.44-4.13-4.44-2.03-2.03-2.26-2.05-2.78-2.94-.94-1.6-.81-2.59-1.98-3.57-.3-.25-1.43-1.19-2.54-.79-.82.3-1.47,1.27-1.27,1.9.18.6.98.53,1.19,1.19.19.62-.43.97-.24,1.59.11.35.57.61,1.51,1.11,0,0,.59.32,1.98.95.55,1.21,1.08,2.48,1.59,3.81.19.51.38,1.01.56,1.51-1.27,1.16-2.54,2.33-3.81,3.49,1.09,1.6,2.05,2.91,2.78,3.89,1.51,2.02,2.06,2.61,2.38,2.94,1.26,1.3,1.6,1.29,2.3,2.14,1.18,1.43,1.09,2.47,1.75,4.13,1.23,3.09,2.83,2.71,4.44,5.71.85,1.59,1.08,3.3,1.51,6.67.38,3.03.36,4.71.48,7.3.28,6.15.82,5.65,1.27,12.7.27,4.18.17,5.77.71,9.52.32,2.2.69,3.99.95,5.16,1.72-.03,3.44-.05,5.16-.08,1.52,2.2,1.6,3.69,1.35,4.68-.2.81-.62,1.24-.4,1.75.39.88,2.24.85,4.13.79,3.48-.09,3.97-.88,6.9-.71.53.03,1.14.09,1.19-.08.1-.33-1.86-1.34-3.73-1.98-2.07-.72-2.52-.47-3.57-1.19-1.36-.94-2.33-2.55-1.98-3.02.17-.23.63-.17,1.03-.08-1.35-2.18-1.69-3.93-1.75-5.16-.04-.95.08-1.93-.24-3.49-.24-1.19-.56-2.3-.56-2.3-.17-.6-.26-.86-.4-1.43,0,0-.2-.87-.32-1.83-.2-1.7.02-3.79.08-4.76.03-.39-.14-2.19-.48-5.79-.26-2.76-.43-4.44.56-6.11.23-.39.47-.68.63-.87.18.63.54,1.52,1.35,2.14,1.34,1.04,3.11.74,4.29.56,2.6-.41,5.64-.82,9.6-1.27-.08.18-.66,1.58.08,2.86.94,1.62,3.11,1.44,3.25,1.43.9-.09,1.68-.72,3.25-1.98,1.38-1.11,1.48-1.49,1.51-1.67.18-1.03-.88-1.49-.79-2.7.07-1,.82-1,1.03-1.98.13-.64-.08-1.11-1.9-4.44-.76-1.4-1.21-2.2-.87-2.86.24-.48.73-.55.79-1.03.09-.67-.8-.92-.79-1.59,0-.77,1.22-1.47,2.06-1.75,1.21-.4,1.91-.03,2.3-.56.31-.41-.05-.75.16-1.59.24-.99.88-1.13,1.19-1.9Z"/>
          <path class="cls-9" d="m127.71,48.54l-3.13.28c.02.19.11.62.44.99.34.39.76.51,1.07.6.48.14,1.08.3,1.47,0,.42-.32.5-1.1.16-1.86Z"/>
        </g>
      </g>
    </g>
  </g>
</svg>